/* XPM */
static char *result[] = {
/* columns rows colors chars-per-pixel */
"48 48 190 2 ",
"   c #142D18",
".  c #163117",
"X  c #1C3B15",
"o  c #173419",
"O  c #1A341C",
"+  c #1C3A1C",
"@  c #233D1D",
"#  c #172921",
"$  c #1A2E21",
"%  c #1D3323",
"&  c #1E3A24",
"*  c #1C3229",
"=  c #203625",
"-  c #233B24",
";  c #283E27",
":  c #253C29",
">  c #293E2B",
",  c #26441B",
"<  c #2B4D1F",
"1  c #31441E",
"2  c #2D521E",
"3  c #34531F",
"4  c #1F4224",
"5  c #244325",
"6  c #2A4424",
"7  c #264A24",
"8  c #2B4C25",
"9  c #254429",
"0  c #2A442A",
"q  c #26492A",
"w  c #2B4C2A",
"e  c #314D26",
"r  c #364928",
"t  c #314D2A",
"y  c #2D5225",
"u  c #2D522A",
"i  c #325324",
"p  c #385727",
"a  c #355A26",
"s  c #3A5D24",
"d  c #33532B",
"f  c #355A2A",
"g  c #3A5C2B",
"h  c #324633",
"j  c #344C32",
"k  c #3E4F37",
"l  c #355332",
"z  c #3C5335",
"x  c #365931",
"c  c #3A5C34",
"v  c #3D543A",
"b  c #3C593C",
"n  c #3C6224",
"m  c #3D622B",
"M  c #3E6432",
"N  c #47552C",
"B  c #425C2C",
"V  c #425A34",
"C  c #4E5937",
"Z  c #44533C",
"A  c #455E3B",
"S  c #4D593B",
"D  c #426526",
"F  c #446926",
"G  c #4C6F25",
"H  c #43652C",
"J  c #456A2C",
"K  c #4A6D2B",
"L  c #506328",
"P  c #52682E",
"I  c #4E722D",
"U  c #52742C",
"Y  c #5B7C2E",
"T  c #436432",
"R  c #496432",
"E  c #466B32",
"W  c #4B6B33",
"Q  c #46643C",
"!  c #4E663F",
"~  c #4D6F3D",
"^  c #576A3A",
"/  c #536C3D",
"(  c #4D7233",
")  c #527433",
"_  c #5B7536",
"`  c #567933",
"'  c #5B7C32",
"]  c #54753A",
"[  c #5A733D",
"{  c #577A39",
"}  c #5C7C3C",
"|  c #647F2F",
" . c #617E34",
".. c #4D5944",
"X. c #4C6540",
"o. c #546D40",
"O. c #5A6946",
"+. c #5A6748",
"@. c #527040",
"#. c #5E7744",
"$. c #636F4C",
"%. c #637244",
"&. c #62754A",
"*. c #66794B",
"=. c #6A7D4D",
"-. c #707C47",
";. c #707F4C",
":. c #647553",
">. c #6C7D53",
",. c #5D8132",
"<. c #62832F",
"1. c #648435",
"2. c #6C8C34",
"3. c #64863B",
"4. c #688838",
"5. c #6D8C3A",
"6. c #718F37",
"7. c #6C923D",
"8. c #749335",
"9. c #799837",
"0. c #74923D",
"q. c #7A973B",
"w. c #7C993B",
"e. c #6B8645",
"r. c #688A45",
"t. c #6C824D",
"y. c #708745",
"u. c #728940",
"i. c #72844E",
"p. c #74894B",
"a. c #79894F",
"s. c #7D9944",
"d. c #789648",
"f. c #6D8855",
"g. c #738353",
"h. c #788755",
"j. c #7A8A54",
"k. c #6C9E5E",
"l. c #7E9254",
"z. c #7E9158",
"x. c #819C3C",
"c. c #88A23F",
"v. c #84994F",
"b. c #818B52",
"n. c #868D5B",
"m. c #8A9C52",
"M. c #8B925D",
"N. c #8E9A5E",
"B. c #88A447",
"V. c #88A448",
"C. c #95AB49",
"Z. c #98B047",
"A. c #99B149",
"S. c #8FA156",
"D. c #8DAC53",
"F. c #94B258",
"G. c #A0B64C",
"H. c #A3BE5A",
"J. c #818F65",
"K. c #839464",
"L. c #8C9563",
"P. c #8E9964",
"I. c #8F9B68",
"U. c #949663",
"Y. c #949B65",
"T. c #999E67",
"R. c #959F6C",
"E. c #9B9F69",
"W. c #94A267",
"Q. c #9AA267",
"!. c #93A26C",
"~. c #9CA26A",
"^. c #91AD6A",
"/. c #96A673",
"(. c #9DA471",
"). c #9DAA75",
"_. c #99A678",
"`. c #A2A56D",
"'. c #A3AA6D",
"]. c #A4B16D",
"[. c #A1A770",
"{. c #A5A972",
"}. c #ABAD73",
"|. c #A2AB79",
" X c #AAAD79",
".X c #ABB074",
"XX c #ADB27E",
"oX c #C1AD5F",
"OX c #ACC76C",
"+X c #E9D98C",
/* pixels */
"k.k.k.k.k.k.k.k.k.k.k.k.k.k.k.k.k.k.k.k.k.k.k.k.k.k.k.k.k.k.k.k.k.k.k.k.k.k.k.k.k.k.k.k.k.k.k.k.",
"k.k.k.k.k.k.k.k.k.k.k.k.k.k.k.k.k.k.k.k.k.k.k.k.k.k.k.k.k.k.k.k.k.k.k.k.k.k.k.k.k.k.k.k.k.k.k.k.",
"k.k.k.k.k.k.k.k.k.k.k.k.k.k.k.k.k.k.k.k.k.k.k.k.k.k.k.k.k.k.k.k.k.k.k.k.k.k.k.k.k.k.k.k.k.k.k.k.",
"k.k.k.k.k.k.k.k.k.k.k.k.k.k.k.k.k.k.k.~.Y.Y.Y.Y.k.k.k.k.k.k.k.k.k.k.k.k.k.k.k.k.k.k.k.k.k.k.k.k.",
"+X+X+X+XoX+X+X+X+X+X+X+X+X+X+X+X+X+X+X$.O g e = +X+X+X+X+X+X+X+X+X+XoX+X+X+X+X+X+X+X+X+X+X+X+X+X",
"+X+X+X+XoX+X+X+X+X+X+X+X+X+X+X+X+X+X+Xp.p G.B.p +X+X+X+X+X+X+X+X+X+XoX+X+X+X+X+X+X+X+X+X+X+X+X+X",
"+X+X+X+XoX+X+X+X+X+X+X+X+X+X+X).*.Q.+X=.i 8.H - +X~.!.!.j.+X+X+X+X+XoX+X+X+X+X+X+X+X+X+X+X+X+X+X",
"+X+X+X+XoX+X+X+X+X+X+X+X+X+X+X].) N +X*.e w.H : +XA d +X+X+X+X+X+X+XoX+X+X+X+X+X+X+X+X+X+X+X+X+X",
"+X+X+X+XoX+X+X+X+X+X+X+X+X+X+X}.v.) [ =.i q.J : h d 0.1.} T ! +X+X+XoX+X+X+X+X+X+X+X+X+X+X+X+X+X",
"+X+X+X+XoX+X+X+X+X+X+X+X< g W L S.` u 0 d c.H - t 0.d r.m.XX(.=.+X+XoX+X+X+X+X+X+X+X+X+X+X+X+X+X",
"+X+X+X+XoX+X+X+X+X+X+X+X=.t.3. .} J p - t x.D ; w H W H } '.~.P.+X+XoX+X+X+X+X+X+X+X+X+X+X+X+X+X",
"+X+X+X+XoX+X+X+X+X+X+X+X+Xz.K W w a 8 6 i B.E - % d N.P.&.b o.+X+X+Xt.R +X+X+X+X+X+X+X+X+X+X+X+X",
"+X+X+X+XoX+X+X+X+X+X+X+X!.t./ / t d 5 w d C.U ; : W L.~.&.z ! +X+XQ.#.R +X+X+X+X+X+X+X+X+X+X+X+X",
"+X+X+X+XoX+X+X+X+X+X+X+Xt.p.`.|.A Z O.- e 0.Y 8 t L.V e.W _.`.L.+X( } ~.+XP.i.a.+X+X+X+X+X+X+X+X",
"+X+X+X+XoX+X+X+X+X+X+X+X+X+X+X/.: C U.% & n w = d U.] OXd._.T.f.+Xn b.{.+Xy.3 B +X+X+X+X+X+X+X+X",
"+X+X+X+XoX+X+X+X+X+XY.Y.!.`.}.).j.}.U.w y q.T - E.[.M 3.F K.E.=.y ) a.E 0.q.~.+X+X+X+X+X+X+X+X+X",
"+X+X+X+XoX+X+X+X+XY., D n i..X.X XXXU., e 9.H % w g.H D.' 0 b g.f 5.f M ( z.+X+X+X+X+X+X+X+X+X+X",
"+X+X+X+XoX+X+X+X+X+XU.T.2.1.`.{.j.[ {.#.d x.F ; w ; d F.Y + 0 M 8 6 d u M x Q o.+X+X+X+X+X+X+X+X",
"+X+X+X+XoX+X+X+X+X+X+X+X'.m.W P a.c j g.t x.J - M O d D.' o % = = s 6.6.w.S.{.~.h.+X+X+X+X+X+X+X",
"+X+X+X+XoX+X+X+X+X+XL 5.A.<.3.4.{ P h =.t x.H = O $ a D.' + h +.w ; | 2 m F !.+X+X+X+X+X+X+X+X+X",
"+X+X+X+XoX+X+X+X+X^ Q.'.m F d w ) _ % t 0 x.E - d % G H.0.X = > - 9 d D E.t.M @.+X+X+X+X+X+X+X+X",
"+X+X+X+XoX+X+X+X+X+X+X) 7.V.H.^.g H 0 5 8 x.H - XXZ = l ; O = j c |.v f 5.v.&.z +X+X+X+X+X+X+X+X",
"+X+X+X+XoX+X+X+X+X+X*.m m.u._ ` g x - 8 D Z.' 8  XZ 0 ) B = - i 8 >.>.x E i.n.g.+X+X+X+X+X+X+X+X",
"+X+X+X+XoX+X+X+X+X+XI.P.c j 8.d.d % 9 O @ W B 0 V : y Y I o @ B % R.}.Y.5 =.+X+X+X+X+X+X+X+X+X+X",
"+X+X+X+XoX+X+X+X+X+X+X+Xw j x.B.e - 8 = & s d = 0 % 8 ` ( + = B j }.Y.{.x ;.+X+X+X+X+X+X+X+X+X+X",
"+X+X+X+XoX+X+X+X+Xg.l.m.>.L.e.] 9 8 m 6 y 2.m : % % a 5.' o $ &.}.=.i.[.g.h.=.h.+X+X+X+X+X+X+X+X",
"+X+X+X+XoX+X+X+X+Xp U 6.{..Xb u 9 a K @ < Y y - 9 % f <. .- $ &.).x I.|.H s e H +X+X+X+X+X+X+X+X",
"+X+X+X+XoX+X+X+X+X+X+Xo.' a.d e >.+ % 7 8 w.m % 5 % a 1.' + % - 4 y y f q.3.W.}.+X+X+X+X+X+X+X+X",
"+X+X+X+XoX+X+X+X+X+X+X+X4 2 7 1 p.< % : 8 x.T & $ % a 1.' O ; 6 % u ` V.g p.+X+X+X+X+X+X+X+X+X+X",
"+X+X+X+XoX+X+X+X+XT K s.2.1.m d T s & @ i x.H : $ $ H w.2.X $ - 4 I J M m ( R @.+X+X+X+X+X+X+X+X",
"+X+X+X+XoX+X+X;.i +X+X] 5 : ' #.u f 4 5 8 8.m = 9 % - w : $ % ~ u.w 3.q.n t.}.Q.+X+X+X+X+X+X+X+X",
"+X+X+X+XoX+X+XL.=.+Xf.M %.z c Q f j - 5 y 8.H = = % 5 m 3   = m ~ ; A 8.I ,.W.~.+X+X+X+X+X+X+X+X",
"+X+X+X+XoX+X+X+X+X+X9 K.h > U } 6 O 5 e F Z.' d   * 6 ` K O : 8 % 5 O > '.y.g ! +X+X+X+X+X+X+X+X",
"+X+X+X+XoX+X+X+X+X+X0 U.% +.s.r.- 5 8 + @ U g 6 $ $ 8 ' U . = > $ x J.j r ^ B c +X+X+X+X+X+X+X+X",
"+X+X+X+XoX+X+X+X+X+X=.~.:.n.} H * w 8 - @ D w O % $ 6 ` G o $ k &.j oXg.9 *.n.h.+X+X+X+X+X+X+X+X",
"+X+X+X+XoX+X+X+X+X+X+X/ }.{.h k :.9 % @ i Y f = 4 O 8 U F O % ; ; v oX+X+X+X+X+X+X+X+X+X+X+X+X+X",
"+X+X+X+XoX+X+X+X+X+X+X@.T.`...S >.0 % : y ,.m : & % 6 ,.H O = 0 = Q }.+X+X+X+X+X+X+X+X+X+X+X+X+X",
"+X+X+X+XoX+X+X+X+Xj.+X+Xd { [.[.U.^ : 5 i I u % & % 7 E d w w 8 # *.m *.;.M.+X+X+X+X+X+X+X+X+X+X",
"+X+X+X+XoX+X+X+X+XM +X+Xa J `.U.t.N O 5 < K u % 4 % 9 E w e f - # w W 8 +X+X+X+X+X+X+X+X+X+X+X+X",
"+X+X+X+XoX+X+X+X+X+Xc u P.p.u y w % = @ 8 m 9 5 ; { % 0 0 E H 5 ; F 7 % Q.=.+X+X+X+X+X+X+X+X+X+X",
"+X+X+X+XoX+X+X+X+X+X+XT 4 m n f & - f - 7 q 4 m 0 r.9 & H s i g 2.7 % 7 E i.+X+X+X+X+X+X+X+X+X+X",
"+X+X+X+XoX+X+X+X+Xx ( m q 7 U ) & + H 9 - F & 7 m 1.u f ' d u U 4.: 9 m ; 0 l X.+X+X+X+X+X+X+X+X",
"+X+X+X+XoX+X+Xt.8 i 4 a ,.m u a u w F n 7 H 3.m Y n m ,.I f m F 7 4 a u y w 8 s +X+X+X+X+X+X+X+X",
"+X+X+X+XoX+X+X+X;.-.7 y ( m u u f f m F y f I f K a m K J 7 y a q u a y f u i a.+X+X+X+X+X+X+X+X",
"k.k.k.k.k.k.k.k.k.k.k.k.k.k.k.k.k.k.k.k.k.k.k.k.k.k.k.k.k.k.k.k.k.k.k.k.k.k.k.k.k.k.k.k.k.k.k.k.",
"k.k.k.k.k.k.k.k.k.k.k.k.k.k.k.k.k.k.k.k.k.k.k.k.k.k.k.k.k.k.k.k.k.k.k.k.k.k.k.k.k.k.k.k.k.k.k.k.",
"k.k.k.k.k.k.k.k.k.k.k.k.k.k.k.k.k.k.k.k.k.k.k.k.k.k.k.k.k.k.k.k.k.k.k.k.k.k.k.k.k.k.k.k.k.k.k.k.",
"k.k.k.k.k.k.k.k.k.k.k.k.k.k.k.k.k.k.k.k.k.k.k.k.k.k.k.k.k.k.k.k.k.k.k.k.k.k.k.k.k.k.k.k.k.k.k.k."
};
