/* XPM */
static char *result[] = {
/* columns rows colors chars-per-pixel */
"48 48 128 2 ",
"   c #3E2313",
".  c #4E2406",
"X  c #4C250C",
"o  c #512204",
"O  c #54270B",
"+  c #57290E",
"@  c #442614",
"#  c #4C2611",
"$  c #452816",
"%  c #4C2A14",
"&  c #422718",
"*  c #452D1D",
"=  c #532B14",
"-  c #5B2E14",
";  c #542D19",
":  c #5B2F19",
">  c #563116",
",  c #5D3115",
"<  c #553219",
"1  c #5D331A",
"2  c #51381E",
"3  c #622E0D",
"4  c #64320E",
"5  c #743A0F",
"6  c #7B3F0F",
"7  c #632F15",
"8  c #633415",
"9  c #6E3615",
"0  c #633419",
"q  c #6C361A",
"w  c #633B1D",
"e  c #6C3A1C",
"r  c #713717",
"t  c #743A13",
"y  c #7C3F16",
"u  c #733B1B",
"i  c #7B3E1B",
"p  c #543520",
"a  c #6C3D22",
"s  c #733E21",
"d  c #5D431F",
"f  c #7D4015",
"g  c #74401D",
"h  c #7C421D",
"j  c #6D4124",
"k  c #6B442C",
"l  c #734021",
"z  c #7D4522",
"x  c #764824",
"c  c #7E4C26",
"v  c #754729",
"b  c #7E532B",
"n  c #82431E",
"m  c #88471C",
"M  c #84491F",
"N  c #8B4A1D",
"B  c #914D1F",
"V  c #844621",
"C  c #884721",
"Z  c #834B22",
"A  c #8B4B22",
"S  c #914E23",
"D  c #8F5222",
"F  c #83532A",
"G  c #8B552A",
"H  c #945224",
"J  c #995625",
"K  c #935529",
"L  c #95592B",
"P  c #9C5B2A",
"I  c #825530",
"U  c #8C5E35",
"Y  c #A25E29",
"T  c #87663F",
"R  c #936534",
"E  c #9A6532",
"W  c #A56027",
"Q  c #A5622B",
"!  c #AA652C",
"~  c #AE692E",
"^  c #B16E2F",
"/  c #B6722D",
"(  c #A06433",
")  c #AB6730",
"_  c #A46C36",
"`  c #AB6A33",
"'  c #AB6D39",
"]  c #B26D32",
"[  c #AD7236",
"{  c #AB713A",
"}  c #B67333",
"|  c #B87533",
" . c #BC7936",
".. c #B67739",
"X. c #BA7B3A",
"o. c #C17E37",
"O. c #C17E3A",
"+. c #A67240",
"@. c #AC7040",
"#. c #B27D42",
"$. c #BB7D40",
"%. c #6C9E5E",
"&. c #C1803E",
"*. c #C9863E",
"=. c #CA883F",
"-. c #BD8547",
";. c #C48443",
":. c #CA8742",
">. c #C68847",
",. c #CD8B42",
"<. c #C78B4D",
"1. c #CB8C4B",
"2. c #D08E45",
"3. c #D18E4A",
"4. c #D29146",
"5. c #D5944B",
"6. c #D7984E",
"7. c #D9994C",
"8. c #C79350",
"9. c #DC9C54",
"0. c #C1AD5F",
"q. c #DDA055",
"w. c #E1A157",
"e. c #E3A35C",
"r. c #E5A85E",
"t. c #C69265",
"y. c #E3A965",
"u. c #E9D98C",
/* pixels */
"%.%.%.%.%.%.%.%.%.%.%.%.%.%.%.%.%.%.%.%.%.%.%.%.%.%.%.%.%.%.%.%.%.%.%.%.%.%.%.%.%.%.%.%.%.%.%.%.",
"%.%.%.%.%.%.%.%.%.%.%.%.%.%.%.%.%.%.%.%.%.%.%.%.%.%.%.%.%.%.%.%.%.%.%.%.%.%.%.%.%.%.%.%.%.%.%.%.",
"%.%.%.%.%.%.%.%.%.%.%.%.%.%.%.%.%.%.%.%.%.%.%.%.%.%.%.%.%.%.%.%.%.%.%.%.%.%.%.%.%.%.%.%.%.%.%.%.",
"%.%.%.%.%.%.%.%.%.%.%.%.%.%.%.%.%.%.%.%.%.%.%.%.%.%.%.%.%.%.%.%.%.%.%.%.%.%.%.%.%.%.%.%.%.%.%.%.",
"u.u.u.u.0.u.u.u.u.u.u.u.u.u.u.u.u.u.u.0.u.u.u.u.u.u.u.u.u.u.u.u.u.u.0.u.u.u.u.u.u.u.u.u.u.u.u.u.",
"u.u.u.u.0.u.u.u.u.u.u.u.u.u.u.u.u.u.u.0.u.u.u.u.u.u.u.u.u.u.u.u.u.u.0.u.u.u.u.u.u.u.u.u.u.u.u.u.",
"u.u.u.u.0.u.u.u.u.u.u.u.u.u.u.u.u.u.u.0.u.u.u.u.u.u.u.u.u.u.u.u.u.u.0.u.u.u.u.u.u.u.u.u.u.u.u.u.",
"u.u.u.u.0.u.u.u.u.u.u.u.u.u.u.u.u.u.u.0.u.u.u.u.u.u.u.u.u.u.u.u.u.u.0.u.u.u.u.u.u.u.u.u.u.u.u.u.",
"u.u.u.u.0.u.u.u.u.u.u.u.u.u.u.u.u.u.u.0.u.u.u.u.u.u.u.u.u.u.u.u.u.u.0.u.u.u.u.u.u.u.u.u.u.u.u.u.",
"u.u.u.u.0.u.u.u.u.u.u.u.u.u.u.u.u.u.u.0.u.u.u.u.: z 2 u.u.u.u.u.u.u.0.u.u.u.u.u.u.u.u.u.u.u.u.u.",
"u.u.u.u.0.u.u.u.u.u.u.u.u.u.u.u.u.u.u.0.u.u.u.2 h 4.7.+._ T p u.u.u.0.u.u.u.u.u.u.u.u.u.u.u.u.u.",
"u.u.u.u.0.u.u.u.u.u.u.u.u.u.u.u.u.3 6 5 @ u.u.v N =.=.r.y.y.f . u.u.0.u.u.u.u.u.u.u.u.u.u.u.u.u.",
"u.u.u.u.0.u.u.u.u.u.u.u.u.u.u.x $.q.5.1.j u.{ t.5.4.2.4.,.,.4.,.L c d { u.u.u.u.u.u.u.u.u.u.u.u.",
"u.u.u.u.0.u.u.u.u.u.u.< R >.7.5.,.,.,.=.` u.1 1.5.=.=.,.,.,.2.=.2.7.7...E , u.u.u.u.u.u.u.u.u.u.",
"u.u.u.u.0.u.u.u.j +.-.;.3.3.=.:.2.2.*.=.*.g I :.,.=.=.,.=.=.,.=.4.=.=.4.=., u.u.u.u.u.u.u.u.u.u.",
"u.u.u.u.0.u.u.@.' 3.,.,.,.3.2.:.,.,.O.O.} L F ;.,.,.=.4.=.,.2.2.=.4.2.7.` u.u.u.u.u.u.u.u.u.u.u.",
"u.u.u.u.0.u.u.u.F 1.5.:.=.,.=.=.=.O.} Q H z w L P ..O.,.*.=.=.=.,.,.=.=.Z u.u.u.u.u.u.u.u.u.u.u.",
"u.u.u.u.0.u.u.u.u.j _ 3.:.3.3.` ! V g u e 0 ; z V V N P ! | 2.,.,.,.:.Q u.u.u.u.u.u.u.u.u.u.u.u.",
"u.u.u.u.0.u.u.u.u.u.{ #...P H u e u q u r ; ; V A m H J H S J ! =.;.` { u.u.u.u.u.u.u.u.u.u.u.u.",
"u.u.u.u.0.u.u.u.u.u.u.. + f h u u q 9 r q 1 % z V S S H B B S B K h -   @.u.u.u.u.u.u.u.u.u.u.u.",
"u.u.u.u.0.u.u.u.u.u.{ #...M 0 u h u u e : 0 = s V H H H H H J A 0 , h ;.[ , % u.u.u.u.u.u.u.u.u.",
"u.u.u.u.0.u.u.u.u.j [ 5.,.q.e.} G e q 0 0 0 ; s i n A S N n V e ..,.2.4.,. .' : u.u.u.u.u.u.u.u.",
"u.u.u.u.0.u.u.u.R <.4.:.:.,.,.=.5. .E E A ; = q r i y q e Z { :.7.=.=.,.,.,.:...j u.u.u.u.u.u.u.",
"u.u.u.u.0.u.u.b *.4.2.,.=.,.,.=.:.:.,.:.*.8.{ - X = - E <.:.,.=.,.2.=.4.,.5.9.D w u.u.u.u.u.u.u.",
"u.u.u.u.0.u.u.U >.6.5.4.,.5.3.:.3.3.,.,.,.w.;., $ # 4 } 9.4.,.4.3.2.3.2.3.>.t.k * u.u.u.u.u.u.u.",
"u.u.u.u.0.u.u.u.1 I R ` 5.3.,.:.2.,.=.,.:.,.L O $ 8  .3.:.,.,.=.,.2.=.o.G > @.u.u.u.u.u.u.u.u.u.",
"u.u.u.u.0.u.u.u.u.u.u.% w L P 4.,.,.,.=.4.L 8 = # 8 0 L 6.,.=.:.:...F : @ u.u.u.u.u.u.u.u.u.u.u.",
"u.u.u.u.0.u.u.u.u.u.u.% P V 1 1 z X.X.&.J 1 z + , n u 1 F >.X.W 0 ; - 0 & u.u.u.u.u.u.u.u.u.u.u.",
"u.u.u.u.0.u.u.u.u.u.u.; } K G A u O 8 M 7 V K 7 : C i q = o J X 0 a 0 u @ u.u.u.u.u.u.u.u.u.u.u.",
"u.u.u.u.0.u.u.u.u.u.u.: / ! Y Y A V y 8 u C H - : A n n 0 = , : u u u s & u.u.u.u.u.u.u.u.u.u.u.",
"u.u.u.u.0.u.u.u.u.u.u.- ^ ~ ! Y Q ! m m A A Y 3 7 n n m h n u r i r u u $ u.u.u.u.u.u.u.u.u.u.u.",
"u.u.u.u.0.u.u.u.u.u.u.8 | ] ^ W Q ! W Q ! Y ~ 9 9 N n m h h n r 8 # $ r $ u.u.u.u.u.u.u.u.u.u.u.",
"u.u.u.u.0.u.u.u.u.u.u.1 } ~ ! ~ ~ ! ! ~ ! ! ^ t r N n C n y C 0 0 a : r % u.u.u.u.u.u.u.u.u.u.u.",
"u.u.u.u.0.u.u.u.u.u.u.{  .] ~ ] ` ! ! ! ! ] ] t u A n C n n A 0 s a : u $ u.u.u.u.u.u.u.u.u.u.u.",
"u.u.u.u.0.u.u.u.u.u.u.u.L ~ } ~ W Q ! W W W ! t t N n n i n n q 0 1 7 :   u.u.u.u.u.u.u.u.u.u.u.",
"u.u.u.u.0.u.u.u.u.u.u.u.u.@.g l ! Q ! Q | ! ) f z S n u n n V i ; & 0.u.u.u.u.u.u.u.u.u.u.u.u.u.",
"u.u.u.u.0.u.u.u.u.u.u.u.u.u.u.u.@.@.P J Y W W f u m u i i i 1 u.u.u.0.u.u.u.u.u.u.u.u.u.u.u.u.u.",
"u.u.u.u.0.u.u.u.u.u.u.u.u.u.u.u.u.{ @.0.A ` ( 4 7 C z : # u.u.u.u.u.0.u.u.u.u.u.u.u.u.u.u.u.u.u.",
"u.u.u.u.0.u.u.u.u.u.u.u.u.u.u.u.u.u.u.0.J J H + 7 r % u.u.u.u.u.u.u.0.u.u.u.u.u.u.u.u.u.u.u.u.u.",
"u.u.u.u.0.u.u.u.u.u.u.u.u.u.u.u.u.u.u.0.u.u.u.u.u.u.u.u.u.u.u.u.u.u.0.u.u.u.u.u.u.u.u.u.u.u.u.u.",
"u.u.u.u.0.u.u.u.u.u.u.u.u.u.u.u.u.u.u.0.u.u.u.u.u.u.u.u.u.u.u.u.u.u.0.u.u.u.u.u.u.u.u.u.u.u.u.u.",
"u.u.u.u.0.u.u.u.u.u.u.u.u.u.u.u.u.u.u.0.u.u.u.u.u.u.u.u.u.u.u.u.u.u.0.u.u.u.u.u.u.u.u.u.u.u.u.u.",
"u.u.u.u.0.u.u.u.u.u.u.u.u.u.u.u.u.u.u.0.u.u.u.u.u.u.u.u.u.u.u.u.u.u.0.u.u.u.u.u.u.u.u.u.u.u.u.u.",
"u.u.u.u.0.u.u.u.u.u.u.u.u.u.u.u.u.u.u.0.u.u.u.u.u.u.u.u.u.u.u.u.u.u.0.u.u.u.u.u.u.u.u.u.u.u.u.u.",
"%.%.%.%.%.%.%.%.%.%.%.%.%.%.%.%.%.%.%.%.%.%.%.%.%.%.%.%.%.%.%.%.%.%.%.%.%.%.%.%.%.%.%.%.%.%.%.%.",
"%.%.%.%.%.%.%.%.%.%.%.%.%.%.%.%.%.%.%.%.%.%.%.%.%.%.%.%.%.%.%.%.%.%.%.%.%.%.%.%.%.%.%.%.%.%.%.%.",
"%.%.%.%.%.%.%.%.%.%.%.%.%.%.%.%.%.%.%.%.%.%.%.%.%.%.%.%.%.%.%.%.%.%.%.%.%.%.%.%.%.%.%.%.%.%.%.%.",
"%.%.%.%.%.%.%.%.%.%.%.%.%.%.%.%.%.%.%.%.%.%.%.%.%.%.%.%.%.%.%.%.%.%.%.%.%.%.%.%.%.%.%.%.%.%.%.%."
};
