/* XPM */
static char *_b09eeae204c414ec6c9c84cb97ed287YShmoHUovPBdjI5q[] = {
/* columns rows colors chars-per-pixel */
"48 48 84 1 ",
"  c #4D2A1E",
". c #4E2C1C",
"X c #512A1C",
"o c #502C1F",
"O c #4E2C20",
"+ c #502D20",
"@ c #6B3C22",
"# c #6D3D23",
"$ c #6B3D25",
"% c #6E4426",
"& c #734124",
"* c #7B4723",
"= c #7A4624",
"- c #894E27",
"; c #874D29",
": c #894D29",
"> c #845028",
", c #8B5A2F",
"< c #8C5A2D",
"1 c #8E5C2E",
"2 c #965726",
"3 c #97572B",
"4 c #99582A",
"5 c #8E5B31",
"6 c #8E5C30",
"7 c #A65F27",
"8 c #A25F2B",
"9 c #A45F2B",
"0 c #98683B",
"q c #A36027",
"w c #A66027",
"e c #A36029",
"r c #A76028",
"t c #A5602A",
"y c #AD7238",
"u c #B37235",
"i c #B47235",
"p c #B77437",
"a c #BA7533",
"s c #B87634",
"d c #B1793D",
"f c #C37F3B",
"g c #C37F3C",
"h c #C47F3C",
"j c #825C44",
"k c #835D44",
"l c #845C44",
"z c #936B49",
"x c #936C49",
"c c #B77B45",
"v c #B87B45",
"b c #BE7F44",
"n c #997B63",
"m c #9A7C63",
"M c #9A7C64",
"N c #9D7E66",
"B c #6C9E5E",
"V c #C38343",
"C c #C48343",
"Z c #C38443",
"A c #C38344",
"S c #C38346",
"D c #C48444",
"F c #C88643",
"G c #CB8B40",
"H c #CC8A40",
"J c #CC8942",
"K c #CE8A44",
"L c #CE8F4A",
"P c #D08A43",
"I c #D29148",
"U c #D29249",
"Y c #D7984F",
"T c #D89850",
"R c #D89950",
"E c #C1AD5F",
"W c #E2A55F",
"Q c #E3A65F",
"! c #E2A660",
"~ c #E4A760",
"^ c #E4A861",
"/ c #C1A587",
"( c #C1A588",
") c #E9D98C",
/* pixels */
"BBBBBBBBBBBBBBBBBBBBBBBBBBBBBBBBBBBBBBBBBBBBBBBB",
"BBBBBBBBBBBBBBBBBBBBBBBBBBBBBBBBBBBBBBBBBBBBBBBB",
"BBBBBBBBBBBBBBBBBBBBBBBBBBBBBBBBBBBBBBBBBBBBBBBB",
"BBBBBBBBBBBBBBBBBBBBBBBBBBBBBBBBBBBBBBBBBBBBBBBB",
"))))E))))))))))))))E))))))))))))))E)))))))))))))",
"))))E))))))))))))))E))))))))))))))E)))))))))))))",
"))))E))))))))))))))E))))))))))))))E)))))))))))))",
"))))E))))))))))))))E))))))))))))))E)))))))))))))",
"))))E))))))))))))))E))))))))))))))E)))))))))))))",
"))))E))))))))))))))E) . .m))))))))E)))))))))))))",
"))))E)))))))))))))MMM<611zMm/)))))E)))))))))))))",
"))))E))))))))))))).. JJJJ<. M)))))E)))))))))))))",
"))))E))))))))))   taJJJJPPJG,  m))E)))))))))))))",
"))))E)))))))nMM1<<sssshJJJJJy<1zMM/)))))))))))))",
"))))E)))))))..OJJJJsttsJJJJJJJJ5+.m)))))))))))))",
"))))E))))   GJJJJJJJJJsttsJJJJJJJJ<  M))))))))))",
"))))E)))) %5YUJJJJJJJPfsssssgJJJJJd0<xM)))))))))",
"))))E)))) 5JWRJJJJJJJJJJPst9pJJJJJYWJ5O)))))))))",
"))))E)))) *twD^~RJPJJJJJPPJKsttCWWZqt*o)))))))))",
"))))E)))) =ttiAZLRRUJJJJJJPJFAVbvCitt*+)))))))))",
"))))E)))) =tttttA~WYJJJJJJJJRW!c:tttt* )))))))))",
"))))E)))) *ttttttttDWWRJJRWWZtt3:ewte*X)))))))))",
"))))E)))) =twtwttttiVZLRRLZZuet3:ette*o)))))))))",
"))))E)))) =twtwtttttttDWWDetttt3:eete* )))))))))",
"))))E)))) =tttttwwttttaJtttttttttttet* )))))))))",
"))))E))))o=tttwttwwtttsJttttttwttttee* )))))))))",
"))))E)))) *tttwtwtttttsJttttwwtttttee* )))))))))",
"))))E)))) =tttttttttttsPttttwwtttttee* )))))))))",
"))))E)))) *ttttttttttwaPttwtwtttw333w*.)))))))))",
"))))E)))) =trtttttttttsPttwtttttw:::w*.)))))))))",
"))))E)))).*tttttttttttsJtttttttt7::;t* )))))))))",
"))))E)))) &3ttttttttttsJttttttttt3334& )))))))))",
"))))E)))).$:8ettttttttaJtttttttttett:$O)))))))))",
"))))E)))))Noo#-tttttttaPttttttttt:#o.M))))))))))",
"))))E)))))(MMl#=-2tttwaPtttttt2-*@kmM())))))))))",
"))))E))))))))M.o#:etttsPwtttte:$.om)))))))))))))",
"))))E)))))))))))Mo.#-eaJqtt:#oXm))E)))))))))))))",
"))))E)))))))))))(MNk#*><**=@kNN())E)))))))))))))",
"))))E))))))))))))))M.       M)))))E)))))))))))))",
"))))E))))))))))))))E))))))))))))))E)))))))))))))",
"))))E))))))))))))))E))))))))))))))E)))))))))))))",
"))))E))))))))))))))E))))))))))))))E)))))))))))))",
"))))E))))))))))))))E))))))))))))))E)))))))))))))",
"))))E))))))))))))))E))))))))))))))E)))))))))))))",
"BBBBBBBBBBBBBBBBBBBBBBBBBBBBBBBBBBBBBBBBBBBBBBBB",
"BBBBBBBBBBBBBBBBBBBBBBBBBBBBBBBBBBBBBBBBBBBBBBBB",
"BBBBBBBBBBBBBBBBBBBBBBBBBBBBBBBBBBBBBBBBBBBBBBBB",
"BBBBBBBBBBBBBBBBBBBBBBBBBBBBBBBBBBBBBBBBBBBBBBBB"
};
