/* XPM */
static char *result[] = {
/* columns rows colors chars-per-pixel */
"48 48 73 1 ",
"  c #020003",
". c #030008",
"X c #020015",
"o c #0F0017",
"O c #04001D",
"+ c #080019",
"@ c #0B0A1C",
"# c #130B1C",
"$ c #1E101B",
"% c #2F181A",
"& c #35171C",
"* c #371B1A",
"= c #391C1B",
"- c #3D2219",
"; c #030520",
": c #441E1C",
"> c #43241E",
", c #4A201E",
"< c #632A14",
"1 c #442322",
"2 c #775035",
"3 c #7C5338",
"4 c #BE3F0B",
"5 c #BE420C",
"6 c #B06715",
"7 c #C1450C",
"8 c #CA4B0B",
"9 c #CC560F",
"0 c #CF590E",
"q c #D25B0F",
"w c #CD5610",
"e c #CE5811",
"r c #D35C10",
"t c #DB640E",
"y c #DE6B0F",
"u c #D76210",
"i c #DB6610",
"p c #DE6A10",
"a c #DF7010",
"s c #E5670D",
"d c #E26E0F",
"f c #F86F08",
"g c #E2710F",
"h c #E16E10",
"j c #E37211",
"k c #E77B11",
"l c #E97C12",
"z c #B76D40",
"x c #BE7644",
"c c #C07643",
"v c #C57945",
"b c #6C9E5E",
"n c #ED8214",
"m c #F18514",
"M c #F48C16",
"N c #F68D19",
"B c #EE9519",
"V c #F79118",
"C c #F99319",
"Z c #F29F1C",
"A c #FF9D1D",
"S c #FFA31D",
"D c #FFAC1E",
"F c #FF9B21",
"G c #FFAE20",
"H c #FFB422",
"J c #FEBD20",
"K c #EE934D",
"L c #C1AD5F",
"P c #E9D98C",
"I c #FEF5E7",
"U c #FFF6E8",
"Y c #FEFFFE",
/* pixels */
"bbbbbbbbbbbbbbbbbbbbbbbbbbbbbbbbbbbbbbbbbbbbbbbb",
"bbbbbbbbbbbbbbbbbbbbbbbbbbbbbbbbbbbbbbbbbbbbbbbb",
"bbbbbbbbbbbbbbbbbbbbbbbbbbbbbbbbbbbbbbbbbbbbbbbb",
"bbbbbbbbbbbbbbbbbbbbbbbbbbbbbbbbbbbbbbbbbbbbbbbb",
"PPPPLPPPPPPPPPPPPPPLPPPPPPPPPPPPPPLPPPPPPPPPPPPP",
"PPPPLPPPPPPPPPPPPPPLPPPPPPPPPPPPPPLPPPPPPPPPPPPP",
"PPPPLPPPPPPPPPPPPPPLPPPPPPPPPPPPPPLPPPPPPPPPPPPP",
"PPPPLPPPPPPPPPPPPPPLPPPPPPPPPPPPPPLPPPPPPPPPPPPP",
"PPPPLPPPPP====PPPPPLPPPPPP:===PPPPLPPPPPPPPPPPPP",
"PPPPLPPPPP=ZBJ PPPPLPPPPP.,::m.PPPLPPPPPPPPPPPPP",
"PPPPLPPPPP=AAF=PPPPLPPPPP=GAAk=PPPLPPPPPPPPPPPPP",
"PPPPLPPPPP=kAAA=*-=======S4wwC=PPPLPPPPPPPPPPPPP",
"PPPPLPPPPP=dutAwnweeAewwAA50wC*PPPLPPPPPPPPPPPPP",
"PPPPLPPPPP=pqeASmeFGAwAAAA5weC*PPPLPP-===PPPPPPP",
"PPPPLPPPPP=gAAAAlwFAAAAAAAASeC*PPPLP&knkk=PPPPPP",
"PPPPLPPPPP=tAAAAg4AASAAAAAASwC=PPPLP=nmnn=PPPPPP",
"PPPPLPPPPP*AAAAAAAAAAAAAAAAAAk=PPPLP=lMnM*PPPPPP",
"PPPPLPPPP=AASAAAAAAAAAAAAAAAAA=PPPLP=iuur=PPPPPP",
"PPPPLPPPP=AAAAAAAAAAAAAAAAAAAF=PPPLP*FAF=PPPPPPP",
"PPPPLPPPP*AA==6AAAAAA-:AAAAAAAr=3PLP*FAA=PPPPPPP",
"PPPPLPPPP*AAY1oAAAAAAY=AAAAADSr=3PLP=tty=PPPPPPP",
"PPPPLPPPP=AAI>XAAACAAU=AAAAAjjr=3PLP=ptt=PPPPPPP",
"PPPPLPPPP=AA==OAAAAAA==AAAAAAAr=2PLP=NVN=PPPPPPP",
"PPPPLPP===AA==%A9wAAA==AAAAAhrw==:LP=lml=PPPPPPP",
"PPPPLPPPP=jAAAAAwAAAAAAAAAAAAp=dyq**VMMM=PPPPPPP",
"PPPPLPPPP=rAAAAAHFCAAAAAAA8qr=nAq0l*qu&*PPPPPPPP",
"PPPPLPPPP*sAASAAAAAAAAAAAA8qf;nA70A=0q#*PPPPPPPP",
"PPPPLPPPPP*knnAAAAAAAAAAkjkl=qgA49A=0q@&PPPPPPPP",
"PPPPLPPPPPP*=;ippdhdhhgjwqqrSrmA49Ad=*PPPPPPPPPP",
"PPPPLPPPPPPPPP*=wehahhhgjhkAAmAAAAAA*PPPPPPPPPPP",
"PPPPLPPPPPPPPPP*AAAAAAAAAAAAAAAAAAAA=PPPPPPPPPPP",
"PPPPLPPPPPPPPPP=AAAAAAAAFAAAASAAAAAA=PPPPPPPPPPP",
"PPPPLPPPPPPPPPP=AAAAAAAAAAAAAAAAAAAA=PPPPPPPPPPP",
"PPPPLPPPPPPPPPP*nAAAAAAAAAAAAAAMNAAA=PPPPPPPPPPP",
"PPPPLPPPPPPPPPP=kk99qglAAAAl99998lkk=PPPPPPPPPPP",
"PPPPLPPPPPPPPPP*klkk===nAAnq====Oykk=PPPPPPPPPPP",
"PPPPLPPPPPPPPPP=lllk=P=rASkk=cx*+lkk=PPPPPPPPPPP",
"PPPPLPPPPPPPPPP*DDll=P*AAAml=cx=OHDk=PPPPPPPPPPP",
"PPPPLPPPPPPPxxc=kkkk=x=AAkkk=cx*$kkk=xxPPPPPPPPP",
"PPPPLPPPPPPxxxxx====xx=AAr<=cxxxv===cxxxPPPPPPPP",
"PPPPLPPPPPPPxxxxxxxxxxx*=*KxxxxxxxxxcxzPPPPPPPPP",
"PPPPLPPPPPPPPPPPxxxxxxxxxxxxxxxxxxxPPPPPPPPPPPPP",
"PPPPLPPPPPPPPPPPPPPLPPPPPPPPPPPPPPLPPPPPPPPPPPPP",
"PPPPLPPPPPPPPPPPPPPLPPPPPPPPPPPPPPLPPPPPPPPPPPPP",
"bbbbbbbbbbbbbbbbbbbbbbbbbbbbbbbbbbbbbbbbbbbbbbbb",
"bbbbbbbbbbbbbbbbbbbbbbbbbbbbbbbbbbbbbbbbbbbbbbbb",
"bbbbbbbbbbbbbbbbbbbbbbbbbbbbbbbbbbbbbbbbbbbbbbbb",
"bbbbbbbbbbbbbbbbbbbbbbbbbbbbbbbbbbbbbbbbbbbbbbbb"
};
