/* XPM */
static char *_862ea550a3f4c659baa46db12cefea7IzEtwNJzvxlVw73f[] = {
/* columns rows colors chars-per-pixel */
"48 48 83 1 ",
"  c #020003",
". c #030008",
"X c #020015",
"o c #0F0017",
"O c #04001D",
"+ c #080019",
"@ c #0B0A1C",
"# c #130B1C",
"$ c #1E101B",
"% c #2F181A",
"& c #35171C",
"* c #371B1A",
"= c #391C1B",
"- c #3D2219",
"; c #030520",
": c #441E1C",
"> c #43241E",
", c #4A201E",
"< c #632A14",
"1 c #442322",
"2 c #775035",
"3 c #795337",
"4 c #7C5338",
"5 c #BE3F0B",
"6 c #BE420C",
"7 c #B06715",
"8 c #C1450C",
"9 c #C54B0D",
"0 c #CA4B0B",
"q c #CC560F",
"w c #CF590E",
"e c #D25B0F",
"r c #CD5610",
"t c #CE5811",
"y c #D35C10",
"u c #DB640E",
"i c #DE6B0F",
"p c #D76210",
"a c #DB6610",
"s c #DE6A10",
"d c #DF7010",
"f c #E5670D",
"g c #E26E0F",
"h c #F86F08",
"j c #E2710F",
"k c #E16E10",
"l c #E37211",
"z c #E77B11",
"x c #E97C12",
"c c #B76D40",
"v c #BE7644",
"b c #BE7844",
"n c #C07643",
"m c #C57945",
"M c #6C9E5E",
"N c #F8830C",
"B c #ED8214",
"V c #F18514",
"C c #F78C19",
"Z c #F68E18",
"A c #EE9519",
"S c #F79118",
"D c #F8931A",
"F c #F99519",
"G c #F29F1C",
"H c #FF9B1B",
"J c #FF9C1B",
"K c #FC981E",
"L c #FF9D1E",
"P c #FFA61A",
"I c #FDA01E",
"U c #FFA71E",
"Y c #FFA81D",
"T c #FFAE1F",
"R c #FF9B21",
"E c #FFAE20",
"W c #FFB422",
"Q c #FEBD20",
"! c #EE934D",
"~ c #C1AD5F",
"^ c #E9D98C",
"/ c #FEF5E7",
"( c #FDFFFF",
/* pixels */
"MMMMMMMMMMMMMMMMMMMMMMMMMMMMMMMMMMMMMMMMMMMMMMMM",
"MMMMMMMMMMMMMMMMMMMMMMMMMMMMMMMMMMMMMMMMMMMMMMMM",
"MMMMMMMMMMMMMMMMMMMMMMMMMMMMMMMMMMMMMMMMMMMMMMMM",
"MMMMMMMMMMMMMMMMMMMMMMMMMMMMMMMMMMMMMMMMMMMMMMMM",
"^^^^~^^^^^^^^^^^^^^~^^^^^^^^^^^^^^~^^^^^^^^^^^^^",
"^^^^~^^^^^^^^^^^^^^~^^^^^^^^^^^^^^~^^^^^^^^^^^^^",
"^^^^~^^^^^^^^^^^^^^~^^^^^^^^^^^^^^~^^^^^^^^^^^^^",
"^^^^~^^^^^^^^^^^^^^~^^^^^^^^^^^^^^~^^^^^^^^^^^^^",
"^^^^~^^^^^^^^^^^^^===1^^^^^^^^^^^^====^^^^^^^^^^",
"^^^^~^^^^^^^^^^^^.N=:,.^^^^^^^^^^ QAG=^^^^^^^^^^",
"^^^^~^^^^^^^^^^^^=xLLI=^^^^^^^^^^=LLL=^^^^^^^^^^",
"^^^^~^^^^^^^^^^^^*Drq8L==========LLLx=^^^^^^^^^^",
"^^^^~^^^^^^^^^^^^=Drw6LLtrtLyrrBrLuai=^^^^^^^^^^",
"^^^^~^^====^^^^^^*Ftr6LLLLrLLLrBLLtts=^^^^^^^^^^",
"^^^^~^=xzBz*^^^^^*FtPKLLLLLLLLrxLLLLl=^^^^^^^^^^",
"^^^^~^=BBVB=^^^^^=DqYLLLLLLLLL5jLLLLu=^^^^^^^^^^",
"^^^^~^*VVVB=^^^^^=xLHLLKLLLLKKLJLLLLL*^^^^^^^^^^",
"^^^^~^=yppp=^^^^^=LLLLLLLLLLLLLLLLLLLL=^^^^^^^^^",
"^^^^~^^*LLL=^^^^^=LLLLLLLLLLLJLJLLLLLL=^^^^^^^^^",
"^^^^~^^=LLR=^^^3=eLLLLLLL:-LLLKLL7==LL=^^^^^^^^^",
"^^^^~^^=uau=^^^3=yLULLKLL=(LLLLLLo1(LL*^^^^^^^^^",
"^^^^~^^=aua=^^^4=ellKLLLL=/JLKLLLX>/LL=^^^^^^^^^",
"^^^^~^^=CSC=^^^2=yLLLLLLL==LLLLKLO==LL=^^^^^^^^^",
"^^^^~^^=xBx=^^===telLKLLK==LLLrrL%==LL===^^^^^^^",
"^^^^~^^=CCCC==eig*sLLLLLLLLLLLLrLLLLJl=^^^^^^^^^",
"^^^^~^^^*&ee=zweLB=yy0KLKKLLLLLWLLJLLu=^^^^^^^^^",
"^^^^~^^^*#ee=Kt9LB;he0LJLLLLLLHLLLILLf*^^^^^^^^^",
"^^^^~^^^&@ee=Lr6Ljy=xxlxLJLLLKLLLLBBz*^^^^^^^^^^",
"^^^^~^^^^^==lLq6LVeLeewrljkljkksaa;=*^^^^^^^^^^^",
"^^^^~^^^^^^=LLLLLLBLLxjljkkldkrr==~^^^^^^^^^^^^^",
"^^^^~^^^^^^=LLLLLLKLLLLLLJLLLLLL=^~^^^^^^^^^^^^^",
"^^^^~^^^^^^=LLLLLLLKLLLLLLLKLKLL=^~^^^^^^^^^^^^^",
"^^^^~^^^^^^=LLLKLLLLLLLLKLLLLLLL=^~^^^^^^^^^^^^^",
"^^^^~^^^^^^=LLLCVLLLLLLLLLLLLLLB*^~^^^^^^^^^^^^^",
"^^^^~^^^^^^=xxx9rrrtxILLJxgerrzx=^~^^^^^^^^^^^^^",
"^^^^~^^^^^^=zxiO====eBLLx===zzxx=^~^^^^^^^^^^^^^",
"^^^^~^^^^^^=zxx+*vv=xzLLy=^=zxxx=^~^^^^^^^^^^^^^",
"^^^^~^^^^^^=xTEO=vv=VBLLL=^=xxET*^~^^^^^^^^^^^^^",
"^^^^~^^^^vv*xxz$*vv=zzxLL=v=xxxx=nvv^^^^^^^^^^^^",
"^^^^~^^^vvvv===mvvbv=<yLL=vv====vvvvv^^^^^^^^^^^",
"^^^^~^^^^cnnvvvvvvvvv!==*vvvvvvvvvvv^^^^^^^^^^^^",
"^^^^~^^^^^^^^vvbvvvbvvvvvvvvvvvv^^~^^^^^^^^^^^^^",
"^^^^~^^^^^^^^^^^^^^~^^^^^^^^^^^^^^~^^^^^^^^^^^^^",
"^^^^~^^^^^^^^^^^^^^~^^^^^^^^^^^^^^~^^^^^^^^^^^^^",
"MMMMMMMMMMMMMMMMMMMMMMMMMMMMMMMMMMMMMMMMMMMMMMMM",
"MMMMMMMMMMMMMMMMMMMMMMMMMMMMMMMMMMMMMMMMMMMMMMMM",
"MMMMMMMMMMMMMMMMMMMMMMMMMMMMMMMMMMMMMMMMMMMMMMMM",
"MMMMMMMMMMMMMMMMMMMMMMMMMMMMMMMMMMMMMMMMMMMMMMMM"
};
