/* XPM */
static char *result[] = {
/* columns rows colors chars-per-pixel */
"48 48 168 2 ",
"   c #1E1B14",
".  c #1E1E1B",
"X  c #201D16",
"o  c #211E1C",
"O  c #22211D",
"+  c #33291D",
"@  c #201E21",
"#  c #1F2122",
"$  c #252322",
"%  c #292724",
"&  c #2B2926",
"*  c #2D2B29",
"=  c #392D21",
"-  c #382E27",
";  c #322E2D",
":  c #3E3A26",
">  c #34322E",
",  c #3C342C",
"<  c #35382F",
"1  c #3F392B",
"2  c #363331",
"3  c #393533",
"4  c #3E3A34",
"5  c #432E17",
"6  c #55391A",
"7  c #41352A",
"8  c #42382D",
"9  c #4A3F2A",
"0  c #403533",
"q  c #433C35",
"w  c #4E3D30",
"e  c #423D39",
"r  c #4D412E",
"t  c #594029",
"y  c #474334",
"u  c #4C443A",
"i  c #564634",
"p  c #5B4736",
"a  c #52453B",
"s  c #544A3B",
"d  c #5D523F",
"f  c #664623",
"g  c #664B2E",
"h  c #6D502E",
"j  c #625338",
"k  c #765533",
"l  c #755836",
"z  c #7B5D3D",
"x  c #554D43",
"c  c #5D4F41",
"v  c #575145",
"b  c #5A5144",
"n  c #635344",
"m  c #6E5942",
"M  c #655849",
"N  c #745B41",
"B  c #7A5D43",
"V  c #665F57",
"C  c #776046",
"Z  c #7D6242",
"A  c #7E654D",
"S  c #77694F",
"D  c #7F684C",
"F  c #6A6255",
"G  c #736957",
"H  c #796C54",
"J  c #756B5B",
"K  c #796E5C",
"L  c #7B715C",
"P  c #836649",
"I  c #866649",
"U  c #80694B",
"Y  c #8A6D4D",
"T  c #966549",
"R  c #91724E",
"E  c #8E6E50",
"W  c #8C7152",
"Q  c #81755C",
"!  c #8D7D5E",
"~  c #967952",
"^  c #9B7A55",
"/  c #937758",
"(  c #A2784C",
")  c #B57456",
"_  c #817665",
"`  c #8C7E63",
"'  c #80796B",
"]  c #887C68",
"[  c #937E64",
"{  c #6C9E5E",
"}  c #A68056",
"|  c #AB8956",
" . c #AB8459",
".. c #AE885B",
"X. c #B38653",
"o. c #B58956",
"O. c #BD8E5F",
"+. c #BD935E",
"@. c #8E846F",
"#. c #908167",
"$. c #9E8363",
"%. c #9E866D",
"&. c #A28562",
"*. c #AE8C60",
"=. c #A78B6C",
"-. c #AF8E6E",
";. c #B08E6D",
":. c #A79168",
">. c #AF926D",
",. c #B59263",
"<. c #BD9463",
"1. c #A89475",
"2. c #B49E75",
"3. c #BBA177",
"4. c #BDA279",
"5. c #C08F55",
"6. c #C2955D",
"7. c #C4985F",
"8. c #CF9B5E",
"9. c #D39D5F",
"0. c #C1AD5F",
"q. c #C59763",
"w. c #C39960",
"e. c #C19C68",
"r. c #CA9E6B",
"t. c #D29F61",
"y. c #CDA16D",
"u. c #D3A165",
"i. c #D7AD65",
"p. c #DBAA67",
"a. c #D4A369",
"s. c #DAA66A",
"d. c #DDAA6A",
"f. c #C7A675",
"g. c #D0A175",
"h. c #D4AB75",
"j. c #D6AF7C",
"k. c #D9B27C",
"l. c #DEBB7D",
"z. c #E1AC6A",
"x. c #E0AE70",
"c. c #E1B274",
"v. c #E0B578",
"b. c #E3BA7D",
"n. c #B09F80",
"m. c #B7A486",
"M. c #B8A886",
"N. c #C2AB83",
"B. c #C3AE8A",
"V. c #CEB38D",
"C. c #D5B987",
"Z. c #D6B689",
"A. c #DCBD8C",
"S. c #D8BE9A",
"D. c #E2BA82",
"F. c #E0B88F",
"G. c #E9BF88",
"H. c #EABF94",
"J. c #E9D98C",
"K. c #E2C696",
"L. c #EFCD92",
"P. c #E2C799",
"I. c #E5CA98",
"U. c #F6D69D",
"Y. c #E1C9A2",
"T. c #EDD1A1",
"R. c #E0CEB1",
"E. c #EBD8B3",
/* pixels */
"{ { { { { { { { { { { { { { { { { { { { { { { { { { { { { { { { { { { { { { { { { { { { { { { { ",
"{ { { { { { { { { { { { { { { { { { { { { { { { { { { { { { { { { { { { { { { { { { { { { { { { ",
"{ { { { { { { { { { { { { { { { { { { { { { { { { { { { { { { { { { { { { { { { { { { { { { { { ",
"{ { { { { { { { { { { { { { { { { { { { { { { { { { { { { { { { { { { { { { { { { { { { { { { { ",
"J.J.J.J.0.J.J.J.J.J.J.J.J.J.J.J.J.J.J.0.J.J.J.J.J.J.J.J.J.J.J.J.J.J.0.J.J.J.J.J.J.J.J.J.J.J.J.J.",
"J.J.J.J.0.J.J.J.J.J.J.J.J.J.J.J.J.J.J.0.J.J.J.J.J.J.J.J.J.J.J.J.J.J.0.J.J.J.J.J.J.J.J.J.J.J.J.J.",
"J.J.J.J.0.J.J.J.J.J.J.J.J.J.J.J.J.J.J.0.J.J.J.J.J.J.J.J.J.J.J.J.J.J.0.J.J.J.J.J.J.J.J.J.J.J.J.J.",
"J.J.J.J.0.J.J.J.J.J.J.& 0 J.J.J.J.J.J.y.J.J.J.J.O O J.J.J.J.J.J.J.J.0.J.J.J.J.J.J.J.J.J.J.J.J.J.",
"J.J.J.J.0.J.J.J.J.J.4 2 ; , J.J.J.J.J.0.J.J.J.v < > J.J.J.J.J.J.J.J.0.J.J.J.J.J.J.J.J.J.J.J.J.J.",
"J.J.J.J.0.J.J.J.J.J.c a.x ; o J.J.J.J.y.J.J.G 3 v ~ : J.J.J.J.J.J.J.0.J.J.J.J.J.J.J.J.J.J.J.J.J.",
"J.J.J.J.0.J.J.J.J.J.c a.r.; @ X             % 2 k.c.1 J.J.J.J.J.J.J.0.J.J.J.J.J.J.J.J.J.J.J.J.J.",
"J.J.J.J.0.J.J.J.J.J.c a.q.3 3 3 2 ; 2 2 2 . * ..d.z.q J.J.J.J.J.J.J.0.J.J.J.J.J.J.J.J.J.J.J.J.J.",
"J.J.J.J.0.J.J.J.J.J.a O.0 3 3 3 < 3 3 3 3 3 3 , 3 P , J.J.J.J.J.J.J.0.J.J.J.J.J.J.J.J.J.J.J.J.J.",
"J.J.J.J.0.J.J.J.J.J.$ = 3 3 3 3 3 3 3 3 3 3 3 3 3 , $ J.J.J.J.J.      J.J.J.J.J.J.J.J.J.J.J.J.J.",
"J.J.J.J.0.J.J.J.J.4 > 3 3 3 2 3 3 3 3 3 3 2 3 3 , 3 $ J.J.J.J.D <.6.+.s 4 ` J.J.J.J.J.J.J.J.J.J.",
"J.J.J.J.0.J.J.J.J.$ 2 3 <.q 3 3 3 3 a y.s.3 3 3 3 3 2 $ J.q 6 d.s < <  .w.N K J.J.J.J.J.J.J.J.J.",
"J.J.J.J.0.J.J.J.J.$ 2 * m ^ e * 3 3  .a.C * > 3 3 3 3 $ J.4 6 } 4 3 3 x B z H J.J.J.J.J.J.J.J.J.",
"J.J.J.J.0.J.J.J.J.% V m.O , 3 ; $ ; 8 8 $ N.' 3 3 3 3 % *  .&.q * # * 3 4 Y B x J.J.J.J.J.J.J.J.",
"J.J.J.J.0.J.J.J.@ 2 J S.$ o 3 3 3 3 N.o O P.@.3 3 3 2 % O +.>.& > 2 @ 2 3 W z e J.J.J.J.J.J.J.J.",
"J.J.J.J.0.J.J.J.. 3 x ] * O % > 3 3 _ , & @.V 3 3 3 3 * % +.y.p * * $ 2 3 W z q J.J.J.J.J.J.J.J.",
"J.J.J.J.0.J.J.J.@ w.*.y 1.$ O 4 B.N.3 3 3 3 3 | w.U 3 3 * > f 6.X.( $ 2 3 I k 4 J.J.J.J.J.J.J.J.",
"J.J.J.J.0.J.J.J.O p.p.p.K.R.4 Y.K.K.M.8 +.i.i.d.z.d.x 4 * 2 2 $ % O * 3 4 > d J.J.J.J.J.J.J.J.J.",
"J.J.J.J.0.J.J.J.J.R d.z.V._ ; Q Q _ Z.R u.z.d.z.z.z.s * & 3 > * & * * 3 3 b J.J.J.J.J.J.J.J.J.J.",
"J.J.J.J.0.J.J.J.J.0 d.z.N.o T ) ) - c h.z.z.z.z.z.^ & > 2 3 3 3 > 3 3 % $ K J.J.J.J.J.J.J.J.J.J.",
"J.J.J.J.0.J.J.J.J.J.Z s.Z.B.F.K.H.#.3 h.z.z.x.g 5 + 2 3 3 3 3 3 3 3 , 3 2 . S J.J.J.J.J.J.J.J.J.",
"J.J.J.J.0.J.J.J.J.J.J.P R D.D.b.b.b.Y d.z.Y R w ; * 3 3 3 3 3 3 3 3 3 3 3 % K J.J.J.J.J.J.J.J.J.",
"J.J.J.J.0.J.J.J.J.J.J.J.$ 0 7 9.9.9.5.p a 3 2 0 3 3 3 3 3 3 3 3 3 3 3 3 3 * K J.J.J.J.J.J.J.J.J.",
"J.J.J.J.0.J.J.J.J.J.J.J.$ * % -.;.;.$.y 3 3 3 2 > 3 3 3 3 3 4 * 2 3 3 3 3 & K J.J.J.J.J.J.J.J.J.",
"J.J.J.J.0.J.J.J.J.J.J.J.$ 3 D 3 3 3 3 3 3 3 n e 3 2 3 2 3 3 3 * 3 3 3 3 < * L J.J.J.J.J.J.J.J.J.",
"J.J.J.J.0.J.J.J.J.J.J.J.$ - 6.<.7.a 3 > ..q.t.x 3 3 3 3 > 2 2 * 2 3 3 3 < * J J.J.J.J.J.J.J.J.J.",
"J.J.J.J.0.J.J.J.J.J.J.J.$ , $.p.h.j r r e.z.f.x 3 3 3 3 * ; 7 - 3 3 3 4 3 * G J.J.J.J.J.J.J.J.J.",
"J.J.J.J.0.J.J.J.J.J.J.J.% 3 3 ~ K.K.K.K.K.D.] 3 3 3 3 3 * m E 9 N C 3 3 3 * G J.J.J.J.J.J.J.J.J.",
"J.J.J.J.0.J.J.J.J.J.J.J.$ 3 3 3 7 O.A.A.C.F.V.4 3 3 3 3 & 7 , F i t B 3 3 3 4 b J.J.J.J.J.J.J.J.",
"J.J.J.J.0.J.J.J.J.J.J.J.q 2 3 , 7 ( 3.4.4.4.3., 3 3 3 4 * > , K b i P 3 3 3 * 4 J.J.J.J.J.J.J.J.",
"J.J.J.J.0.J.J.J.J.J.J.J.J.@ 2 a 8., H K L L K ; Q n 3 3 * o.=.L J.J.A Y A 2 * 4 J.J.J.J.J.J.J.J.",
"J.J.J.J.0.J.J.J.J.J.J.J.J.o m E t.8 J.0.J.J.J.8 p.W 3 %.n o.=.Q J.J.L +.a.&.b 4 J.J.J.J.J.J.J.J.",
"J.J.J.J.0.J.J.J.J.J.J.J.J.. 6.d.9.7 J.0.J.J.J.4 p.^ p g.B X.=.L J.J.L 6.d.z.l 4 J.J.J.J.J.J.J.J.",
"J.J.J.J.0.J.J.J.J.J.J.J.K Q h.c.9.7 J.0.J.J.J.4 l.b.v.8.z o./ K J.J.L j.b.c.k 4 J.J.J.J.J.J.J.J.",
"J.J.J.J.0.J.J.J.J.J.J.J.y U.T.D.0.7 J.0.J.J.J.< E.T.L.u.B ,.[ H J.m.] K.I.G.h q J.J.J.J.J.J.J.J.",
"J.J.J.J.0.J.J.J.J.J.J.J.> <.M f.X.s J.0.J.J.L :.u ! o.o.Z e ` J.J.M.y n.2./ g b J.J.J.J.J.J.J.J.",
"J.J.J.J.3.J.J.J.J.J.J.J.K L L L L J.J.0.J.J.J.L L L L H J.J.J.J.J.J.0.L L L J.J.J.J.J.J.J.J.J.J.",
"J.J.J.J.0.J.J.J.J.J.J.J.J.J.J.J.J.J.J.0.J.J.J.J.J.J.J.J.J.J.J.J.J.J.0.J.J.J.J.J.J.J.J.J.J.J.J.J.",
"J.J.J.J.0.J.J.J.J.J.J.J.J.J.J.J.J.J.J.0.J.J.J.J.J.J.J.J.J.J.J.J.J.J.0.J.J.J.J.J.J.J.J.J.J.J.J.J.",
"J.J.J.J.0.J.J.J.J.J.J.J.J.J.J.J.J.J.J.0.J.J.J.J.J.J.J.J.J.J.J.J.J.J.y.J.J.J.J.J.J.J.J.J.J.J.J.J.",
"{ { { { { { { { { { { { { { { { { { { { { { { { { { { { { { { { { { { { { { { { { { { { { { { { ",
"{ { { { { { { { { { { { { { { { { { { { { { { { { { { { { { { { { { { { { { { { { { { { { { { { ",
"{ { { { { { { { { { { { { { { { { { { { { { { { { { { { { { { { { { { { { { { { { { { { { { { { ",
"{ { { { { { { { { { { { { { { { { { { { { { { { { { { { { { { { { { { { { { { { { { { { { { { { "
};
