/* XPM */
static char *result[] = {
/* columns rows colors chars-per-pixel */
"48 48 164 2 ",
"   c #1E1B14",
".  c #1E1E1B",
"X  c #201D16",
"o  c #211E1C",
"O  c #22211D",
"+  c #33291D",
"@  c #201E21",
"#  c #1F2122",
"$  c #252322",
"%  c #292724",
"&  c #2B2926",
"*  c #2D2B29",
"=  c #392D21",
"-  c #382E27",
";  c #322E2D",
":  c #3E3A26",
">  c #34322E",
",  c #3C342C",
"<  c #35382F",
"1  c #3F392B",
"2  c #363331",
"3  c #393533",
"4  c #3E3A34",
"5  c #432E17",
"6  c #55391A",
"7  c #41352A",
"8  c #42382D",
"9  c #403533",
"0  c #433C35",
"q  c #4E3D30",
"w  c #423D39",
"e  c #4D412E",
"r  c #474334",
"t  c #474339",
"y  c #4C443A",
"u  c #564634",
"i  c #5B4736",
"p  c #52453B",
"a  c #544A3B",
"s  c #5B4D3E",
"d  c #5D523F",
"f  c #664623",
"g  c #664B2E",
"h  c #6D502E",
"j  c #625338",
"k  c #765533",
"l  c #755836",
"z  c #745B3F",
"x  c #7B5D3D",
"c  c #554D43",
"v  c #5D4F41",
"b  c #575145",
"n  c #5A5144",
"m  c #635344",
"M  c #6E5942",
"N  c #655849",
"B  c #745B41",
"V  c #7A5D43",
"C  c #665F57",
"Z  c #776046",
"A  c #7D6242",
"S  c #7E654D",
"D  c #77694F",
"F  c #7F684C",
"G  c #6A6255",
"H  c #736957",
"J  c #796C54",
"K  c #756B5B",
"L  c #796E5C",
"P  c #7B715C",
"I  c #866649",
"U  c #8A6D4D",
"Y  c #966549",
"T  c #8D724C",
"R  c #91724E",
"E  c #9E784F",
"W  c #8E6E50",
"Q  c #8C7152",
"!  c #81755C",
"~  c #8D7D5E",
"^  c #967952",
"/  c #937758",
"(  c #9E7A58",
")  c #A2784C",
"_  c #AF7556",
"`  c #B57456",
"'  c #817665",
"]  c #8C7E63",
"[  c #80796B",
"{  c #887C68",
"}  c #6C9E5E",
"|  c #A68056",
" . c #AB8956",
".. c #AB8459",
"X. c #AE885B",
"o. c #B38653",
"O. c #B58956",
"+. c #BD935E",
"@. c #908167",
"#. c #9E8363",
"$. c #8F8471",
"%. c #A28562",
"&. c #A78B6C",
"*. c #AF8E6E",
"=. c #B08E6D",
"-. c #A79168",
";. c #AF926D",
":. c #B59263",
">. c #BD9463",
",. c #A89475",
"<. c #B49E75",
"1. c #BBA177",
"2. c #BDA279",
"3. c #C08F55",
"4. c #C2955D",
"5. c #C4985F",
"6. c #CF9B5E",
"7. c #D39D5F",
"8. c #C1AD5F",
"9. c #C59763",
"0. c #C39960",
"q. c #CA9E6B",
"w. c #D29F61",
"e. c #CDA16D",
"r. c #D3A165",
"t. c #D7AD65",
"y. c #DBAA67",
"u. c #D4A369",
"i. c #DAA66A",
"p. c #DDAA6A",
"a. c #C7A675",
"s. c #D0A175",
"d. c #D4AB75",
"f. c #D6AF7C",
"g. c #D9B27C",
"h. c #DEBB7D",
"j. c #E1AC6A",
"k. c #E0AE70",
"l. c #E1B274",
"z. c #E0B578",
"x. c #E3BA7D",
"c. c #B7A486",
"v. c #B8A886",
"b. c #C2AB83",
"n. c #C3AE8A",
"m. c #CEB38D",
"M. c #D5B987",
"N. c #DFBD83",
"B. c #D6B689",
"V. c #DCBD8C",
"C. c #D8BE9A",
"Z. c #E2BA82",
"A. c #E0B88F",
"S. c #EABF94",
"D. c #E9D98C",
"F. c #E2C696",
"G. c #EFCD92",
"H. c #E2C799",
"J. c #E5CA98",
"K. c #F6D69D",
"L. c #E1C9A2",
"P. c #EDD1A1",
"I. c #E0CEB1",
"U. c #EBD8B3",
/* pixels */
"} } } } } } } } } } } } } } } } } } } } } } } } } } } } } } } } } } } } } } } } } } } } } } } } ",
"} } } } } } } } } } } } } } } } } } } } } } } } } } } } } } } } } } } } } } } } } } } } } } } } ",
"} } } } } } } } } } } } } } } } } } } } } } } } } } } } } } } } } } } } } } } } } } } } } } } } ",
"} } } } } } } } } } } } } } } } } } } } } } } } } } } } } } } } } } } } } } } } } } } } } } } } ",
"D.D.D.D.8.D.D.D.D.D.D.D.D.D.D.D.D.D.D.8.D.D.D.D.D.D.D.D.D.D.D.D.D.D.8.D.D.D.D.D.D.D.D.D.D.D.D.D.",
"D.D.D.D.8.D.D.D.D.D.D.D.D.D.D.D.D.D.D.8.D.D.D.D.D.D.D.D.D.D.D.D.D.D.8.D.D.D.D.D.D.D.D.D.D.D.D.D.",
"D.D.D.D.8.D.D.D.D.D.D.D.D.D.D.D.D.D.D.8.D.D.D.D.D.D.D.D.D.D.D.D.D.D.8.D.D.D.D.D.D.D.D.D.D.D.D.D.",
"D.D.D.D.8.D.D.D.D.D.D.D.D.D.D.D.D.D.D.8.D.D.O O D.D.D.D.D.D.D.D.D.D.8.9 & D.D.D.D.D.D.D.D.D.D.D.",
"D.D.D.D.8.D.D.D.D.D.D.D.D.D.D.D.D.D.D.8.D.D.2 ; b D.D.D.D.D.D.D.D.D.7 ; 2 3 D.D.D.D.D.D.D.D.D.D.",
"D.D.D.D.8.D.D.D.D.D.D.D.D.D.D.D.D.D.D.8.D.: ( v < H D.D.D.D.D.D.D.@ 2 c s.v D.D.D.D.D.D.D.D.D.D.",
"D.D.D.D.8.D.D.D.D.D.D.D.D.D.D.D.D.D.D.8.D.7 k.B.< %         X     @ ; q.u.s D.D.D.D.D.D.D.D.D.D.",
"D.D.D.D.8.D.D.D.D.D.D.D.D.D.D.D.D.D.D.8.D.9 j.j.X.* o 2 2 2 2 2 2 2 3 q.i.s D.D.D.D.D.D.D.D.D.D.",
"D.D.D.D.8.D.D.D.D.D.D.D.D.D.D.D.D.D.D.8.D.7 I 2 , 3 3 3 2 3 3 3 3 3 3 9 >.p D.D.D.D.D.D.D.D.D.D.",
"D.D.D.D.8.D.D.D.D.D.D.D.D.      D.D.D.8.D.% , 3 3 3 3 3 3 3 3 3 3 3 3 3 = $ D.D.D.D.D.D.D.D.D.D.",
"D.D.D.D.8.D.D.D.D.D.] 4 a +.+.4.F D.D.8.D.@ 3 2 3 3 3 3 3 3 3 3 3 3 3 3 2 2 4 D.D.D.D.D.D.D.D.D.",
"D.D.D.D.8.D.D.D.D.K V 9. .< < a p.6 w 8.@ 2 3 3 3 3 3 j.q.p 3 3 3 3 9 >., 2 $ D.D.D.D.D.D.D.D.D.",
"D.D.D.D.8.D.D.D.D.K x V c 3 3 4 | 6 4 8.$ 3 3 < 2 ; * Z u...3 3 & t E M * 2 $ D.D.D.D.D.D.D.D.D.",
"D.D.D.D.8.D.D.D.a V U 9 3 * % & 0 %...> % 3 3 3 4 ' b.$ 9 8 > $ ; 3 , O v.G $ D.D.D.D.D.D.D.D.D.",
"D.D.D.D.8.D.D.D.w x Q 4 2 O 2 2 & ;.+.# % 3 3 3 3 $.H.# o b.3 3 3 3 # # C.K 3 . D.D.D.D.D.D.D.D.",
"D.D.D.D.8.D.D.D.4 x Q 3 2 $ * & u e.+.$ * 3 3 3 3 C $.* - ' 3 3 * & # & { b 3 @ D.D.D.D.D.D.D.D.",
"D.D.D.D.8.D.D.D.4 l U 3 2 $ ( o.4.f , * 3 3 F 5. .3 3 2 3 2 b.n.3 $ $ ,.r X.5.o D.D.D.D.D.D.D.D.",
"D.D.D.D.8.D.D.D.D.n , 3 3 * O $ # , 2 * 3 c j.j.p.t.t.+.8 n.J.J.L.4 I.H.p.y.p.o D.D.D.D.D.D.D.D.",
"D.D.D.D.8.D.D.D.D.D.n 3 3 * & * * 2 2 * * a j.k.j.j.j.w.R B.! ! ! > ' m.j.y.R D.D.D.D.D.D.D.D.D.",
"D.D.D.D.8.D.D.D.D.D.P O $ 3 3 > 3 3 3 2 2 & E p.j.j.j.j.d.b - _ ` Y O b.j.p.7 D.D.D.D.D.D.D.D.D.",
"D.D.D.D.8.D.D.D.D.D X 2 3 3 3 3 4 3 3 4 3 2 + 5 g j.p.j.d.4 ~ S.F.A.n.B.i.A D.D.D.D.D.D.D.D.D.D.",
"D.D.D.D.8.D.D.D.D.K % 2 3 3 3 3 3 3 3 3 3 2 * * y R T j.u.T Z.Z.Z.x.Z.R I D.D.D.D.D.D.D.D.D.D.D.",
"D.D.D.D.8.D.D.D.D.L ; 3 3 3 3 3 3 3 3 3 3 3 3 3 2 2 3 a i 3.7.7.7.8 9 $ D.D.D.D.D.D.D.D.D.D.D.D.",
"D.D.D.D.8.D.D.D.D.L & 3 3 3 3 2 ; 3 3 3 3 3 3 2 2 3 3 3 q %.=.=.*.$ * $ D.D.D.D.D.D.D.D.D.D.D.D.",
"D.D.D.D.8.D.D.D.D.K * 3 3 3 3 2 * 3 3 3 3 3 3 2 w m 2 2 3 3 2 3 3 S 2 $ D.D.D.D.D.D.D.D.D.D.D.D.",
"D.D.D.D.8.D.D.D.D.L * 2 3 3 3 2 * 2 3 * 3 3 3 3 c r.0. .2 3 y 5.0.4.- $ D.D.D.D.D.D.D.D.D.D.D.D.",
"D.D.D.D.8.D.D.D.D.H ; 4 3 3 3 3 - , ; * 3 3 2 3 p s.p.e.e e j g.p.#.3 $ D.D.D.D.D.D.D.D.D.D.D.D.",
"D.D.D.D.8.D.D.D.D.K * 3 3 3 V z q W M * 3 3 3 3 3 @.x.F.F.F.F.F.^ 3 3 $ D.D.D.D.D.D.D.D.D.D.D.D.",
"D.D.D.D.8.D.D.D.n 9 3 3 3 V q u G , 7 & 3 2 2 3 9 m.V.M.V.V.>.7 3 3 3 $ D.D.D.D.D.D.D.D.D.D.D.D.",
"D.D.D.D.8.D.D.D.4 ; 3 3 3 F a d P , - ; 3 3 3 3 4 1.2.2.2.1.) 7 , 3 3 9 D.D.D.D.D.D.D.D.D.D.D.D.",
"D.D.D.D.8.D.D.D.4 * , F T S D.D.P &.O.* 3 3 m ! ; L P L L J , 6.p 2 @ D.D.D.D.D.D.D.D.D.D.D.D.D.",
"D.D.D.D.8.D.D.D.4 d #.u.4.L D.D.P &.X.m &.3 W i.9 D.D.D.D.D.7 6.W B o D.D.D.D.D.D.D.D.D.D.D.D.D.",
"D.D.D.D.8.D.D.D.4 k j.j.+.L D.D.P -.O.x s.u | t.0 D.D.D.D.D.1 7.p.+.. D.D.D.D.D.D.D.D.D.D.D.D.D.",
"D.D.D.D.8.D.D.D.0 k l.z.f.! D.D.P / O.V 6.h.h.h.1 D.D.D.D.D.1 6.z.d.! P D.D.D.D.D.D.D.D.D.D.D.D.",
"D.D.D.D.8.D.D.D.0 h F.J.F.{ c.D.D @.:.x r.G.P.U., D.D.D.D.D.7 6.N.P.K.r D.D.D.D.D.D.D.D.D.D.D.D.",
"D.D.D.D.8.D.D.D.b g Q 1.<.t c.D.D.@.4 A o.O.@.t -.[ D.D.D.D.a o.a.N >., D.D.D.D.D.D.D.D.D.D.D.D.",
"D.D.D.D.e.D.D.D.D.D.P P K D.D.D.D.D.D.8.K P P P K D.D.D.D.D.D.P P L P K D.D.D.D.D.D.D.D.D.D.D.D.",
"D.D.D.D.8.D.D.D.D.D.D.D.D.D.D.D.D.D.D.8.D.D.D.D.D.D.D.D.D.D.D.D.D.D.8.D.D.D.D.D.D.D.D.D.D.D.D.D.",
"D.D.D.D.8.D.D.D.D.D.D.D.D.D.D.D.D.D.D.8.D.D.D.D.D.D.D.D.D.D.D.D.D.D.8.D.D.D.D.D.D.D.D.D.D.D.D.D.",
"D.D.D.D.8.D.D.D.D.D.D.D.D.D.D.D.D.D.D.8.D.D.D.D.D.D.D.D.D.D.D.D.D.D.8.D.D.D.D.D.D.D.D.D.D.D.D.D.",
"} } } } } } } } } } } } } } } } } } } } } } } } } } } } } } } } } } } } } } } } } } } } } } } } ",
"} } } } } } } } } } } } } } } } } } } } } } } } } } } } } } } } } } } } } } } } } } } } } } } } ",
"} } } } } } } } } } } } } } } } } } } } } } } } } } } } } } } } } } } } } } } } } } } } } } } } ",
"} } } } } } } } } } } } } } } } } } } } } } } } } } } } } } } } } } } } } } } } } } } } } } } } "
};
