/* XPM */
static char *_63cce9464264ae0cee920c3efc30a80vHxZaIUqwkpeJkSi[] = {
/* columns rows colors chars-per-pixel */
"48 48 3 1 ",
"  c #6C9E5E",
". c #C1AD5F",
"X c #E9D98C",
/* pixels */
"                                                ",
"                                                ",
"                                                ",
"                                                ",
"XXXX.XXXXXXXXXXXXXX.XXXXXXXXXXXXXX.XXXXXXXXXXXXX",
"XXXX.XXXXXXXXXXXXXX.XXXXXXXXXXXXXX.XXXXXXXXXXXXX",
"XXXX.XXXXXXXXXXXXXX.XXXXXXXXXXXXXX.XXXXXXXXXXXXX",
"XXXX.XXXXXXXXXXXXXX.XXXXXXXXXXXXXX.XXXXXXXXXXXXX",
"XXXX.XXXXXXXXXXXXXX.XXXXXXXXXXXXXX.XXXXXXXXXXXXX",
"XXXX.XXXXXXXXXXXXXX.XXXXXXXXXXXXXX.XXXXXXXXXXXXX",
"XXXX.XXXXXXXXXXXXXX.XXXXXXXXXXXXXX.XXXXXXXXXXXXX",
"XXXX.XXXXXXXXXXXXXX.XXXXXXXXXXXXXX.XXXXXXXXXXXXX",
"XXXX.XXXXXXXXXXXXXX.XXXXXXXXXXXXXX.XXXXXXXXXXXXX",
"XXXX.XXXXXXXXXXXXXX.XXXXXXXXXXXXXX.XXXXXXXXXXXXX",
"XXXX.XXXXXXXXXXXXXX.XXXXXXXXXXXXXX.XXXXXXXXXXXXX",
"XXXX.XXXXXXXXXXXXXX.XXXXXXXXXXXXXX.XXXXXXXXXXXXX",
"XXXX.XXXXXXXXXXXXXX.XXXXXXXXXXXXXX.XXXXXXXXXXXXX",
"XXXX.XXXXXXXXXXXXXX.XXXXXXXXXXXXXX.XXXXXXXXXXXXX",
"XXXX.XXXXXXXXXXXXXX.XXXXXXXXXXXXXX.XXXXXXXXXXXXX",
"XXXX.XXXXXXXXXXXXXX.XXXXXXXXXXXXXX.XXXXXXXXXXXXX",
"XXXX.XXXXXXXXXXXXXX.XXXXXXXXXXXXXX.XXXXXXXXXXXXX",
"XXXX.XXXXXXXXXXXXXX.XXXXXXXXXXXXXX.XXXXXXXXXXXXX",
"XXXX.XXXXXXXXXXXXXX.XXXXXXXXXXXXXX.XXXXXXXXXXXXX",
"XXXX.XXXXXXXXXXXXXX.XXXXXXXXXXXXXX.XXXXXXXXXXXXX",
"XXXX.XXXXXXXXXXXXXX.XXXXXXXXXXXXXX.XXXXXXXXXXXXX",
"XXXX.XXXXXXXXXXXXXX.XXXXXXXXXXXXXX.XXXXXXXXXXXXX",
"XXXX.XXXXXXXXXXXXXX.XXXXXXXXXXXXXX.XXXXXXXXXXXXX",
"XXXX.XXXXXXXXXXXXXX.XXXXXXXXXXXXXX.XXXXXXXXXXXXX",
"XXXX.XXXXXXXXXXXXXX.XXXXXXXXXXXXXX.XXXXXXXXXXXXX",
"XXXX.XXXXXXXXXXXXXX.XXXXXXXXXXXXXX.XXXXXXXXXXXXX",
"XXXX.XXXXXXXXXXXXXX.XXXXXXXXXXXXXX.XXXXXXXXXXXXX",
"XXXX.XXXXXXXXXXXXXX.XXXXXXXXXXXXXX.XXXXXXXXXXXXX",
"XXXX.XXXXXXXXXXXXXX.XXXXXXXXXXXXXX.XXXXXXXXXXXXX",
"XXXX.XXXXXXXXXXXXXX.XXXXXXXXXXXXXX.XXXXXXXXXXXXX",
"XXXX.XXXXXXXXXXXXXX.XXXXXXXXXXXXXX.XXXXXXXXXXXXX",
"XXXX.XXXXXXXXXXXXXX.XXXXXXXXXXXXXX.XXXXXXXXXXXXX",
"XXXX.XXXXXXXXXXXXXX.XXXXXXXXXXXXXX.XXXXXXXXXXXXX",
"XXXX.XXXXXXXXXXXXXX.XXXXXXXXXXXXXX.XXXXXXXXXXXXX",
"XXXX.XXXXXXXXXXXXXX.XXXXXXXXXXXXXX.XXXXXXXXXXXXX",
"XXXX.XXXXXXXXXXXXXX.XXXXXXXXXXXXXX.XXXXXXXXXXXXX",
"XXXX.XXXXXXXXXXXXXX.XXXXXXXXXXXXXX.XXXXXXXXXXXXX",
"XXXX.XXXXXXXXXXXXXX.XXXXXXXXXXXXXX.XXXXXXXXXXXXX",
"XXXX.XXXXXXXXXXXXXX.XXXXXXXXXXXXXX.XXXXXXXXXXXXX",
"XXXX.XXXXXXXXXXXXXX.XXXXXXXXXXXXXX.XXXXXXXXXXXXX",
"                                                ",
"                                                ",
"                                                ",
"                                                "
};
