/* XPM */
static char *result[] = {
/* columns rows colors chars-per-pixel */
"48 48 158 2 ",
"   c #3A220B",
".  c #3B2411",
"X  c #3E2815",
"o  c #45270C",
"O  c #482C1B",
"+  c #552F17",
"@  c #542E1A",
"#  c #4F301F",
"$  c #593017",
"%  c #56301A",
"&  c #5A331C",
"*  c #6B330C",
"=  c #6E3410",
"-  c #763E1B",
";  c #793E1F",
":  c #4F1F20",
">  c #4D2020",
",  c #4C2B24",
"<  c #4D2929",
"1  c #532827",
"2  c #502729",
"3  c #572628",
"4  c #552B2C",
"5  c #592D2E",
"6  c #493326",
"7  c #4A3329",
"8  c #533625",
"9  c #553827",
"0  c #5C3A27",
"q  c #58332B",
"w  c #5D3C2C",
"e  c #593833",
"r  c #623425",
"t  c #623925",
"y  c #61372B",
"u  c #693E28",
"i  c #733F22",
"p  c #7A3F21",
"a  c #612F32",
"s  c #6E2D34",
"d  c #603332",
"f  c #6C3237",
"g  c #6F3339",
"h  c #6C3D3B",
"j  c #74343C",
"k  c #7B363F",
"l  c #72393E",
"z  c #76431F",
"x  c #7B401F",
"c  c #5D4A36",
"v  c #64472E",
"b  c #764420",
"n  c #7B4021",
"m  c #7B4827",
"M  c #734329",
"N  c #654436",
"B  c #694137",
"V  c #634C36",
"C  c #6C4933",
"Z  c #66453E",
"A  c #634E3D",
"S  c #694A38",
"D  c #7D3640",
"F  c #684640",
"G  c #694842",
"H  c #735D48",
"J  c #854724",
"K  c #864925",
"L  c #854A29",
"P  c #8F552F",
"I  c #8E5531",
"U  c #8D5C3E",
"Y  c #843C43",
"T  c #8B3F45",
"R  c #903F46",
"E  c #8A4146",
"W  c #96444B",
"Q  c #98454C",
"!  c #974651",
"~  c #944B53",
"^  c #966D4A",
"/  c #9F7657",
"(  c #9E7854",
")  c #95785E",
"_  c #AC754A",
"`  c #A07759",
"'  c #A17858",
"]  c #AE785D",
"[  c #8F7D66",
"{  c #9A7D67",
"}  c #9A7C6A",
"|  c #6C9E5E",
" . c #B88453",
".. c #978266",
"X. c #988267",
"o. c #95826C",
"O. c #9A8269",
"+. c #978570",
"@. c #988772",
"#. c #9D8D75",
"$. c #9E8F78",
"%. c #A68D73",
"&. c #AC9576",
"*. c #A5927C",
"=. c #AF957B",
"-. c #C28B5C",
";. c #CD8D58",
":. c #CD925B",
">. c #D19058",
",. c #C1AD5F",
"<. c #C49462",
"1. c #DF9E63",
"2. c #DB9E68",
"3. c #E19F63",
"4. c #DEA065",
"5. c #DCA973",
"6. c #DEA977",
"7. c #E3A163",
"8. c #E5A66B",
"9. c #E9AF73",
"0. c #E1AC7C",
"q. c #EAB175",
"w. c #EFB87E",
"e. c #B6A58C",
"r. c #B9A68C",
"t. c #B9A88E",
"y. c #BAA792",
"u. c #BEAD94",
"i. c #C1A687",
"p. c #C9AB89",
"a. c #CCB592",
"s. c #CFB998",
"d. c #D6B992",
"f. c #E9B482",
"g. c #ECBC81",
"h. c #E6BB8F",
"j. c #F1BE84",
"k. c #EEB590",
"l. c #E4BC90",
"z. c #CDBCA2",
"x. c #D2BEA2",
"c. c #ECC18E",
"v. c #E9D98C",
"b. c #EAC399",
"n. c #F5C192",
"m. c #F7C597",
"M. c #D7C2A4",
"N. c #DBCAAF",
"B. c #DAC6B2",
"V. c #DECFB3",
"C. c #DED0B4",
"Z. c #E9CBA5",
"A. c #ECD3AF",
"S. c #F1D4AE",
"D. c #E6D7BA",
"F. c #E7D8BB",
"G. c #F0DDC7",
"H. c #EEE0CA",
/* pixels */
"| | | | | | | | | | | | | | | | | | | | | | | | | | | | | | | | | | | | | | | | | | | | | | | | ",
"| | | | | | | | | | | | | | | | | | | | | | | | | | | | | | | | | | | | | | | | | | | | | | | | ",
"| | | | | | | | | | | | | | | | | | | | | | | | | | | | | | | | | | | | | | | | | | | | | | | | ",
"| | | | | | | | | | | | | | | | | | | | | | | | | | | | | | | | | | | | | | | | | | | | | | | | ",
"v.v.v.v.,.v.v.v.v.v.v.v.v.v.v.v.v.v.v.,.v.v.v.v.v.v.v.) O.X.O.X.o.v.,.v.v.v.v.v.v.v.v.v.v.v.v.v.",
"v.v.v.v.,.v.v.v.v.v.v.v.v.v.v.v.v.v.v.,.v.v.v.v.v.v.v.X 7 6 6 6 6 v.,.v.v.v.v.v.v.v.v.v.v.v.v.v.",
"v.v.v.v.,.v.v.v.v.v.v.v.v.v.v.v.v.v.V 6 6 7 7 6 6 6 6 H.D.F.C.t.y.6 ..v.v.v.v.v.v.v.v.v.v.v.v.v.",
"v.v.v.v.,.v.v.v.v.v.v.v.v.v.v.v.v.v.c 6 7 7 7 7 7 7 7 H.D.F.C.r.e.6 ..v.v.v.v.v.v.v.v.v.v.v.v.v.",
"v.v.v.v.,.v.v.v.v.v.v.v.v.v.v.v.%.A B.z.z.z.z.z.M.e.$.#.$.N.C.C.C.6 ..v.v.v.v.v.v.v.v.v.v.v.v.v.",
"v.v.v.v.,.v.v.v.v.v.v.v.v.v.v.a.X.A G.D.D.D.V.A.C.M.u.o.@.M.N.C.C.7 ..v.v.v.v.v.v.v.v.v.v.v.v.v.",
"v.v.v.v.,.v.v.v.v.v.v.v.v.v.v.6 +.D.D.D.D.V.r.r.G.F.F.e.e.@.@.t.e.7 o.v.v.v.v.v.v.v.v.v.v.v.v.v.",
"v.v.v.v.,.v.v.v.v.v.v.v.v.v.v.6 O.S.S.A.A.Z.p.p.M.A.F.u.u.o...o.+.H &.v.v.v.v.v.v.v.v.v.v.v.v.v.",
"v.v.v.v.,.v.v.v.v.v.v.v.v.v.v.6 ` j.j.c.j.j.j.j.7.h.F.F.C.u.*.6 7 v.,.v.v.v.v.v.v.v.v.v.v.v.v.v.",
"v.v.v.v.,.v.v.v.v.v.v.v.v.v.v.6 ` j.j.j.j.g.j.j.q.g.l.s.M.u.*.6 7 v.,.v.v.v.v.v.v.v.v.v.v.v.v.v.",
"v.v.v.v.,.v.v.v.v.v.v.v.v.v.v.7 ' j.j.c.j.j.j.j.j.9.4.r.e.t.*.6 7 v.,.v.v.v.v.v.v.v.v.v.v.v.v.v.",
"v.v.v.v.,.v.v.v.v.v.v.v.v.v.v.J K K n.w.I x n p n p x M b =.*.6 7 v.,.v.v.v.v.v.v.v.v.v.v.v.v.v.",
"v.v.v.v.,.v.v.v.v.v.v.v.v.v.v.L K L n.j.I n n n n n ; p n =.*.6 7 v.,.v.v.v.v.v.v.v.v.v.v.v.v.v.",
"v.v.v.v.,.v.v.v.v.v.v.v.v.v.v.C _ 8 U P 0 C 5.0.n _ 5.;.>.2.-.6 6 v.,.v.v.v.v.v.v.v.v.v.v.v.v.v.",
"v.v.v.v.,.v.v.v.v.v.v.v.v.v.v.N ^ 6 U P 0 C 5.6.I -.j.1.3.:. .A G v.,.v.v.v.v.v.v.v.v.v.v.v.v.v.",
"v.v.v.v.,.v.v.v.v.v.v.v.v.v.v.6 t x n.j.I ; ; - j.j.j.1.7.v A v.v.v.,.v.v.v.v.v.v.v.v.v.v.v.v.v.",
"v.v.v.v.,.v.v.v.v.v.v.v.v.v.v.6 & * j.j.J * = * j.j.j.f.f.S A v.v.v.,.v.v.v.v.v.v.v.v.v.v.v.v.v.",
"v.v.v.v.,.v.v.v.v.v.v.v.v.v.v.6 ' c.j.j.8.8.j.j.j.9.3.@ 6 1 Z v.v.v.,.v.v.v.v.v.v.v.v.v.v.v.v.v.",
"v.v.v.v.,.v.v.v.v.v.v.v.v.v.v.../ ( c.c.q.9.9.9.j.<.^ q d a h } } v.,.v.v.v.v.v.v.v.v.v.v.v.v.v.",
"v.v.v.v.,.v.v.v.v.v.v.v.v.v.v.v.O.6 b.j.j.w.3.3.j.' 6 j j j f < < v.,.v.v.v.v.v.v.v.v.v.v.v.v.v.",
"v.v.v.v.,.v.v.v.v.v.v.v.v.v.v.v.v.v.  6 O O , , O y k ~ ! ! W g g > [ v.v.v.v.v.v.v.v.v.v.v.v.v.",
"v.v.v.v.,.v.v.v.v.v.v.v.v.v.v.v.v.v.. 7 6 6 6 7 6 d j ! Q W E D j < { v.v.v.v.v.v.v.v.v.v.v.v.v.",
"v.v.v.v.,.v.v.v.v.v.v.v.v.v.v.A c A , < D E Y E T E R k D W W j j , { v.v.v.v.v.v.v.v.v.v.v.v.v.",
"v.v.v.v.,.v.v.v.v.v.v.v.v.a.s.S c 8 , < E Q Q W W Q Q s f R T D j < { v.v.v.v.v.v.v.v.v.v.v.v.v.",
"v.v.v.v.,.v.v.v.v.v.v.v.a.6 o g.] j 3 < E W W W W Q W : < T R D j < { v.v.v.v.v.v.v.v.v.v.v.v.v.",
"v.v.v.v.,.v.v.v.v.v.v.v.a.# o w.] f 3 < E W ~ W W W W : 2 T Y D j < { v.v.v.v.v.v.v.v.v.v.v.v.v.",
"v.v.v.v.,.v.v.v.v.v.v.A 9 L J L u 7 6 6 < 4 j D j a < ~ W ! R D j < { v.v.v.v.v.v.v.v.v.v.v.v.v.",
"v.v.v.v.,.v.v.v.v.v.v.A 8 L L u 0 6 } O.e 4 Y Y Y f < ~ W Y D D j < { v.v.v.v.v.v.v.v.v.v.v.v.v.",
"v.v.v.v.,.v.v.v.v.v.v.A 8 J L 7 , 7 v.,.F 5 W W Q l < ~ W k j k j < { v.v.v.v.v.v.v.v.v.v.v.v.v.",
"v.v.v.v.,.v.v.v.v.v.v.A 8 L m v.v.v.v.,.G 5 W Q Q j < k.k.h 5 j j 1 { v.v.v.v.v.v.v.v.v.v.v.v.v.",
"v.v.v.v.,.v.v.v.v.v.v.A 9 J b v.v.v.v.,.F 5 W W W j < m.g.B 4 j j < { v.v.v.v.v.v.v.v.v.v.v.v.v.",
"v.v.v.v.,.v.v.v.v.v.v.A 8 J z v.v.v.v.,.Z 5 W W Q W E Z B g j D j < { v.v.v.v.v.v.v.v.v.v.v.v.v.",
"v.v.v.v.,.v.v.v.v.v.v.A 9 J z v.v.v.v.,.F 5 Q R Q Q W 3 5 j j j j < } v.v.v.v.v.v.v.v.v.v.v.v.v.",
"v.v.v.v.,.v.v.v.v.v.v.A 9 J z v.v.v.v.,.F a Q ! Q W W W Q k j j j < { v.v.v.v.v.v.v.v.v.v.v.v.v.",
"v.v.v.v.,.v.v.v.v.v.v.A 9 K z v.v.v.v.,.Z 5 W R W W W W Q k j j j < { v.v.v.v.v.v.v.v.v.v.v.v.v.",
"v.v.v.v.,.v.v.v.v.v.v.A 9 K z v.v.v.v.,.Z < < < < < < < < < < < , < { v.v.v.v.v.v.v.v.v.v.v.v.v.",
"v.v.v.v.,.v.v.v.v.v.v.A 9 J z v.v.v.v.,.%.) r r @ , , r r @ w O.} } i.v.v.v.v.v.v.v.v.v.v.v.v.v.",
"v.v.v.v.,.v.v.v.v.v.v.A 9 J z v.v.v.v.,.v.d.p p % 8 6 M ; $ C v.v.v.,.v.v.v.v.v.v.v.v.v.v.v.v.v.",
"v.v.v.v.,.v.v.v.v.v.v.A 9 K z v.v.v.v.,.x.p.i i + O 6 M i & C v.v.v.,.v.v.v.v.v.v.v.v.v.v.v.v.v.",
"v.v.v.v.,.v.v.v.v.v.v.A 8 K z v.v.v.v.,.C $ @ @ + & + + + + C v.v.v.,.v.v.v.v.v.v.v.v.v.v.v.v.v.",
"| | | | | | | | | | | | | | | | | | | | | | | | | | | | | | | | | | | | | | | | | | | | | | | | ",
"| | | | | | | | | | | | | | | | | | | | | | | | | | | | | | | | | | | | | | | | | | | | | | | | ",
"| | | | | | | | | | | | | | | | | | | | | | | | | | | | | | | | | | | | | | | | | | | | | | | | ",
"| | | | | | | | | | | | | | | | | | | | | | | | | | | | | | | | | | | | | | | | | | | | | | | | "
};
