/* XPM */
static char *result[] = {
/* columns rows colors chars-per-pixel */
"48 48 154 2 ",
"   c #3A220B",
".  c #3B2411",
"X  c #3E2815",
"o  c #45270C",
"O  c #48260A",
"+  c #44231E",
"@  c #482C1B",
"#  c #552F17",
"$  c #542E1A",
"%  c #4F301F",
"&  c #593017",
"*  c #56301A",
"=  c #5A331C",
"-  c #6B330C",
";  c #6E3410",
":  c #763E1B",
">  c #793E1F",
",  c #4D2020",
"<  c #4C2B24",
"1  c #4D2929",
"2  c #532827",
"3  c #502729",
"4  c #572628",
"5  c #552B2C",
"6  c #592D2E",
"7  c #493326",
"8  c #4A3329",
"9  c #533625",
"0  c #553827",
"q  c #5C3A27",
"w  c #5D3C2C",
"e  c #593833",
"r  c #623425",
"t  c #623925",
"y  c #6C3D24",
"u  c #693E28",
"i  c #733F22",
"p  c #7A3F21",
"a  c #612F32",
"s  c #6E2D34",
"d  c #603332",
"f  c #6C3237",
"g  c #6D3F37",
"h  c #6F3339",
"j  c #6C3D3B",
"k  c #74343C",
"l  c #7B363F",
"z  c #72393E",
"x  c #76431F",
"c  c #7B401F",
"v  c #5D4A36",
"b  c #64472E",
"n  c #764420",
"m  c #7B4021",
"M  c #7B4827",
"N  c #734329",
"B  c #654436",
"V  c #694137",
"C  c #634C36",
"Z  c #6C4933",
"A  c #66453E",
"S  c #634E3D",
"D  c #694A38",
"F  c #7D3640",
"G  c #684640",
"H  c #694842",
"J  c #735D48",
"K  c #854724",
"L  c #864925",
"P  c #854A29",
"I  c #8F552F",
"U  c #8E5531",
"Y  c #8D5C3E",
"T  c #843C43",
"R  c #8B3F45",
"E  c #903F46",
"W  c #8A4146",
"Q  c #96444B",
"!  c #98454C",
"~  c #974651",
"^  c #944B53",
"/  c #966D4A",
"(  c #9E7854",
")  c #95785E",
"_  c #AC754A",
"`  c #A07759",
"'  c #A17858",
"]  c #AE785D",
"[  c #B3785E",
"{  c #8F7D66",
"}  c #9A7D67",
"|  c #9A7C6A",
" . c #6C9E5E",
".. c #B88453",
"X. c #978266",
"o. c #988267",
"O. c #95826C",
"+. c #9A8269",
"@. c #978570",
"#. c #988772",
"$. c #9D8D75",
"%. c #9E8F78",
"&. c #A68D73",
"*. c #AC9576",
"=. c #A5927C",
"-. c #AF957B",
";. c #C28B5C",
":. c #CD8D58",
">. c #CD925B",
",. c #D19058",
"<. c #C1AD5F",
"1. c #DF9E63",
"2. c #DB9E68",
"3. c #E19F63",
"4. c #DCA973",
"5. c #E3A163",
"6. c #E5A66B",
"7. c #E9AF73",
"8. c #E1AC7C",
"9. c #EAB175",
"0. c #EFB87E",
"q. c #B6A58C",
"w. c #B9A68C",
"e. c #B9A88E",
"r. c #BAA792",
"t. c #BEAD94",
"y. c #C9AB89",
"u. c #CCB592",
"i. c #CFB998",
"p. c #D6B992",
"a. c #E9B482",
"s. c #ECBC81",
"d. c #E6BB8F",
"f. c #EEBA89",
"g. c #F1BE84",
"h. c #EEB590",
"j. c #CDBCA2",
"k. c #D2BEA2",
"l. c #ECC18E",
"z. c #E9D98C",
"x. c #EAC399",
"c. c #F5C192",
"v. c #D7C2A4",
"b. c #DBCAAF",
"n. c #DAC6B2",
"m. c #DECFB3",
"M. c #DED0B4",
"N. c #E9CBA5",
"B. c #ECD3AF",
"V. c #F1D4AE",
"C. c #E6D7BA",
"Z. c #E7D8BB",
"A. c #EEE0CA",
"S. c #F1E0C9",
/* pixels */
" . . . . . . . . . . . . . . . . . . . . . . . . . . . . . . . . . . . . . . . . . . . . . . . .",
" . . . . . . . . . . . . . . . . . . . . . . . . . . . . . . . . . . . . . . . . . . . . . . . .",
" . . . . . . . . . . . . . . . . . . . . . . . . . . . . . . . . . . . . . . . . . . . . . . . .",
" . . . . . . . . . . . . . . . . . . . . . . . . . . . . . . . . . . . . . . . . . . . . . . . .",
"z.z.z.z.<.z.z.z.z.z.z.z.z.z.z.{ +.+.o.+.{ z.z.z.z.z.z.z.z.z.z.z.z.z.<.z.z.z.z.z.z.z.z.z.z.z.z.z.",
"z.z.z.z.<.z.z.z.z.z.z.z.z.z.z.7 7 7 8 8 X z.z.z.z.z.z.z.z.z.z.z.z.z.<.z.z.z.z.z.z.z.z.z.z.z.z.z.",
"z.z.z.z.<.z.z.z.z.z.z.z.z.X.7 r.w.M.C.C.S.7 7 7 7 7 7 7 7 C z.z.z.z.<.z.z.z.z.z.z.z.z.z.z.z.z.z.",
"z.z.z.z.<.z.z.z.z.z.z.z.z.X.7 q.q.M.Z.Z.A.7 7 7 8 8 8 8 7 v z.z.z.z.<.z.z.z.z.z.z.z.z.z.z.z.z.z.",
"z.z.z.z.<.z.z.z.z.z.z.z.z.X.8 m.M.M.b.%.$.=.q.j.j.j.i.v.j.n.S &.z.z.<.z.z.z.z.z.z.z.z.z.z.z.z.z.",
"z.z.z.z.<.z.z.z.z.z.z.z.z.+.8 M.M.b.v.@.O.t.v.C.M.M.C.C.M.A.S O.u.z.<.z.z.z.z.z.z.z.z.z.z.z.z.z.",
"z.z.z.z.<.z.z.z.z.z.z.z.z.o.8 q.e.#.#.e.q.C.C.C.q.w.m.Z.Z.Z.Z.@.8 z.<.z.z.z.z.z.z.z.z.z.z.z.z.z.",
"z.z.z.z.<.z.z.z.z.z.z.z.z.*.J @.O.X.O.t.t.C.B.N.y.y.N.B.V.V.V.+.8 z.<.z.z.z.z.z.z.z.z.z.z.z.z.z.",
"z.z.z.z.<.z.z.z.z.z.z.z.z.z.z.8 7 %.t.Z.C.C.d.5.g.g.g.g.l.g.g.' 7 z.<.z.z.z.z.z.z.z.z.z.z.z.z.z.",
"z.z.z.z.<.z.z.z.z.z.z.z.z.z.z.8 7 %.r.v.k.d.0.9.g.g.g.g.g.g.0.' 7 z.<.z.z.z.z.z.z.z.z.z.z.z.z.z.",
"z.z.z.z.<.z.z.z.z.z.z.z.z.z.z.8 7 =.q.q.w.5.7.0.g.g.0.l.g.g.l.' 8 z.<.z.z.z.z.z.z.z.z.z.z.z.z.z.",
"z.z.z.z.<.z.z.z.z.z.z.z.z.z.z.8 7 %.q.n c c c c c K c I g.c.L L K z.<.z.z.z.z.z.z.z.z.z.z.z.z.z.",
"z.z.z.z.<.z.z.z.z.z.z.z.z.z.z.8 7 =.-.p c n n c > m m U l.c.L L L z.<.z.z.z.z.z.z.z.z.z.z.z.z.z.",
"z.z.z.z.<.z.z.z.z.z.z.z.z.z.z.8 7 ;.2.,.:.6._ p 8.4.Z t I Y 0 / D z.<.z.z.z.z.z.z.z.z.z.z.z.z.z.",
"z.z.z.z.<.z.z.z.z.z.z.z.z.z.z.G S ..>.3.3.0.:.I 8.4.Z q U Y 9 / B z.<.z.z.z.z.z.z.z.z.z.z.z.z.z.",
"z.z.z.z.<.z.z.z.z.z.z.z.z.z.z.z.z.C b 3.5.l.0.g.: > c I g.c.n t 7 z.<.z.z.z.z.z.z.z.z.z.z.z.z.z.",
"z.z.z.z.<.z.z.z.z.z.z.z.z.z.z.z.z.S D a.a.g.g.g.- ; ; L g.f.- = 7 z.<.z.z.z.z.z.z.z.z.z.z.z.z.z.",
"z.z.z.z.<.z.z.z.z.z.z.z.z.z.z.z.z.G 1 8 2 5.7.l.g.g.6.6.g.g.g.` 7 z.<.z.z.z.z.z.z.z.z.z.z.z.z.z.",
"z.z.z.z.<.z.z.z.z.z.z.z.z.z.z.| | j a d q / ;.0.7.7.7.9.g.l.' ) o.z.<.z.z.z.z.z.z.z.z.z.z.z.z.z.",
"z.z.z.z.<.z.z.z.z.z.z.z.z.z.z.1 1 s k k k 8 ( l.1.3.0.g.g.x.7 o.z.z.<.z.z.z.z.z.z.z.z.z.z.z.z.z.",
"z.z.z.z.<.z.z.z.z.z.z.z.z.{ + k F Q ~ ~ ^ z w % < < @ @ @   z.z.z.z.<.z.z.z.z.z.z.z.z.z.z.z.z.z.",
"z.z.z.z.<.z.z.z.z.z.z.z.z.} 1 k F E Q Q ~ k d 8 7 7 7 7 8 . z.z.z.z.<.z.z.z.z.z.z.z.z.z.z.z.z.z.",
"z.z.z.z.<.z.z.z.z.z.z.z.z.} 3 h f R E F l E W W T R W T 1 < S S S z.<.z.z.z.z.z.z.z.z.z.z.z.z.z.",
"z.z.z.z.<.z.z.z.z.z.z.z.z.} 1 h F W Q k s ! Q Q Q Q Q W 1 1 8 b S i.u.z.z.z.z.z.z.z.z.z.z.z.z.z.",
"z.z.z.z.<.z.z.z.z.z.z.z.z.} 1 k F R R 1 , Q Q Q Q Q Q W 1 2 k [ s.o 8 u.z.z.z.z.z.z.z.z.z.z.z.z.",
"z.z.z.z.<.z.z.z.z.z.z.z.z.| 1 k F T R 3 , Q Q ! Q ^ Q W 1 1 f ] s.O 9 y.z.z.z.z.z.z.z.z.z.z.z.z.",
"z.z.z.z.<.z.z.z.z.z.z.z.z.} 1 k F E ~ E ^ 1 a k k k 5 1 7 8 7 y L K L 0 S z.z.z.z.z.z.z.z.z.z.z.",
"z.z.z.z.<.z.z.z.z.z.z.z.z.} 1 k F T R ! ^ 1 f T T R 5 e +.| 8 q u P L 0 S z.z.z.z.z.z.z.z.z.z.z.",
"z.z.z.z.<.z.z.z.z.z.z.z.z.} 1 k k k F ! ~ 1 k Q Q ! 6 H z.z.7 7 7 P L 9 S z.z.z.z.z.z.z.z.z.z.z.",
"z.z.z.z.<.z.z.z.z.z.z.z.z.| 1 k k 6 V h.h.5 k Q Q Q 6 H z.z.z.z.z.M L 0 S z.z.z.z.z.z.z.z.z.z.z.",
"z.z.z.z.<.z.z.z.z.z.z.z.z.} 1 k k 5 V 0.N.5 h Q Q ! 6 A z.z.z.z.z.x L 0 S z.z.z.z.z.z.z.z.z.z.z.",
"z.z.z.z.<.z.z.z.z.z.z.z.z.| 1 k k k h g g W Q Q Q ! 6 A z.z.z.z.z.x L 9 S z.z.z.z.z.z.z.z.z.z.z.",
"z.z.z.z.<.z.z.z.z.z.z.z.z.} 1 k k k k 6 4 ! ! Q Q Q 6 A z.z.z.z.z.x L 9 S z.z.z.z.z.z.z.z.z.z.z.",
"z.z.z.z.<.z.z.z.z.z.z.z.z.X.1 k k k F ! ! ! Q Q ! ! 6 A z.z.z.z.z.x L 9 S z.z.z.z.z.z.z.z.z.z.z.",
"z.z.z.z.<.z.z.z.z.z.z.z.z.} 1 k k k l ! ! Q Q Q ! Q 6 A z.z.z.z.z.x L 9 S z.z.z.z.z.z.z.z.z.z.z.",
"z.z.z.z.<.z.z.z.z.z.z.z.z.} 1 1 1 1 1 1 1 1 1 1 < 1 1 A z.z.z.z.z.x L 9 S z.z.z.z.z.z.z.z.z.z.z.",
"z.z.z.z.<.z.z.z.z.z.z.z.z.w.} | | w 2 r r 2 7 $ r r ) &.z.z.z.z.z.x L 0 S z.z.z.z.z.z.z.z.z.z.z.",
"z.z.z.z.<.z.z.z.z.z.z.z.z.z.z.z.z.Z & : N 7 % * p > p.z.z.z.z.z.z.x L 0 S z.z.z.z.z.z.z.z.z.z.z.",
"z.z.z.z.<.z.z.z.z.z.z.z.z.z.z.z.z.Z = i N % % # i i y.v.z.z.z.z.z.n L 9 S z.z.z.z.z.z.z.z.z.z.z.",
"z.z.z.z.<.z.z.z.z.z.z.z.z.z.z.z.z.Z $ $ # # * # $ $ # Z z.z.z.z.z.n L 9 S z.z.z.z.z.z.z.z.z.z.z.",
" . . . . . . . . . . . . . . . . . . . . . . . . . . . . . . . . . . . . . . . . . . . . . . . .",
" . . . . . . . . . . . . . . . . . . . . . . . . . . . . . . . . . . . . . . . . . . . . . . . .",
" . . . . . . . . . . . . . . . . . . . . . . . . . . . . . . . . . . . . . . . . . . . . . . . .",
" . . . . . . . . . . . . . . . . . . . . . . . . . . . . . . . . . . . . . . . . . . . . . . . ."
};
