/* XPM */
static char *result[] = {
/* columns rows colors chars-per-pixel */
"48 48 188 2 ",
"   c #181513",
".  c #1B1917",
"X  c #1C1C1D",
"o  c #231613",
"O  c #27221C",
"+  c #1C1E20",
"@  c #251E20",
"#  c #1D2123",
"$  c #1F2428",
"%  c #222424",
"&  c #2A2627",
"*  c #2C2927",
"=  c #202529",
"-  c #24282B",
";  c #2B2E2E",
":  c #352A27",
">  c #34302E",
",  c #3C332D",
"<  c #272F35",
"1  c #282F35",
"2  c #2B343B",
"3  c #363433",
"4  c #3C3633",
"5  c #3F3836",
"6  c #363C3F",
"7  c #3A3B39",
"8  c #44271A",
"9  c #5F341E",
"0  c #4D2E22",
"q  c #46342D",
"w  c #573727",
"e  c #5B3A23",
"r  c #433730",
"t  c #433A34",
"y  c #4A3A33",
"u  c #423D39",
"i  c #553F34",
"p  c #653625",
"a  c #6D3C23",
"s  c #663D2D",
"d  c #6B3D2A",
"f  c #693F30",
"g  c #3D403B",
"h  c #554334",
"j  c #6A4027",
"k  c #6B412C",
"l  c #76452D",
"z  c #7B452B",
"x  c #7C492B",
"c  c #624F3F",
"v  c #714632",
"b  c #734833",
"n  c #7D4C31",
"m  c #745039",
"M  c #2F3A43",
"N  c #333D44",
"B  c #323F48",
"V  c #35434C",
"C  c #39454F",
"Z  c #374751",
"A  c #394650",
"S  c #3B4B55",
"D  c #3D4F59",
"F  c #4A4944",
"G  c #4D4C49",
"H  c #50504B",
"J  c #414B53",
"K  c #575751",
"L  c #5B5954",
"P  c #64574B",
"I  c #6E5B4C",
"U  c #745D4D",
"Y  c #665F57",
"T  c #6F5C51",
"R  c #73624E",
"E  c #7D654C",
"W  c #6E6254",
"Q  c #656259",
"!  c #6A635C",
"~  c #6A695E",
"^  c #716254",
"/  c #7A6551",
"(  c #736558",
")  c #776A5D",
"_  c #7C6B5D",
"`  c #6F6E64",
"'  c #756D64",
"]  c #6F716C",
"[  c #75746E",
"{  c #7A7569",
"}  c #7D7B6D",
"|  c #7D7A71",
" . c #834A2D",
".. c #854B2D",
"X. c #8B502F",
"o. c #834E31",
"O. c #8B4F30",
"+. c #8E5332",
"@. c #885738",
"#. c #905432",
"$. c #9E6239",
"%. c #98724E",
"&. c #816B55",
"*. c #816E5D",
"=. c #88755E",
"-. c #9D765D",
";. c #A7714D",
":. c #A97954",
">. c #867765",
",. c #887A67",
"<. c #857A6D",
"1. c #947C65",
"2. c #6C9E5E",
"3. c #B3815A",
"4. c #BA845E",
"5. c #BA8A5E",
"6. c #9B856B",
"7. c #838273",
"8. c #888676",
"9. c #8F8E7D",
"0. c #978E7A",
"q. c #92917F",
"w. c #A98562",
"e. c #BE8663",
"r. c #BB8E63",
"t. c #B38D6B",
"y. c #A68B73",
"u. c #A98E74",
"i. c #AB9076",
"p. c #AB9179",
"a. c #B79574",
"s. c #B8997B",
"d. c #C68A5A",
"f. c #D08D5A",
"g. c #C1AD5F",
"h. c #CC9264",
"j. c #DE9D67",
"k. c #CA9C71",
"l. c #E29D6B",
"z. c #D8A06E",
"x. c #C7A17A",
"c. c #DFA573",
"v. c #D4A77E",
"b. c #DDA97C",
"n. c #E5A36E",
"m. c #E3A572",
"M. c #ECA770",
"N. c #E5A873",
"B. c #EBA974",
"V. c #E5AA79",
"C. c #EAAF7C",
"Z. c #EBB17C",
"A. c #938F81",
"S. c #959382",
"D. c #999685",
"F. c #9C9887",
"G. c #AD9987",
"H. c #A39E8D",
"J. c #A5A08E",
"K. c #BEA286",
"L. c #BFA68A",
"P. c #A7A290",
"I. c #AAA594",
"U. c #AEA997",
"Y. c #AEA999",
"T. c #B2AC9B",
"R. c #BEB8AB",
"E. c #CCA984",
"W. c #C0A78B",
"Q. c #C4A98B",
"!. c #D4A780",
"~. c #D8B38D",
"^. c #CCB594",
"/. c #D1B593",
"(. c #D8BA98",
"). c #E7B687",
"_. c #EDB585",
"`. c #ECB68A",
"'. c #EDBA8D",
"]. c #F5B784",
"[. c #E9BE94",
"{. c #E9D98C",
"}. c #EEC396",
"|. c #EBC49A",
" X c #F2C396",
".X c #F8C394",
"XX c #F1C59B",
"oX c #F0D1AB",
/* pixels */
"2.2.2.2.2.2.2.2.2.2.2.2.2.2.2.2.2.2.2.2.2.2.2.2.2.2.2.2.2.2.2.2.2.2.2.2.2.2.2.2.2.2.2.2.2.2.2.2.",
"2.2.2.2.2.2.2.2.2.2.2.2.2.2.2.2.2.2.2.2.2.2.2.2.2.2.2.2.2.2.2.2.2.2.2.2.2.2.2.2.2.2.2.2.2.2.2.2.",
"2.2.2.2.2.2.2.2.2.2.2.2.2.2.2.2.2.2.2.2.2.2.2.2.2.2.2.2.2.2.2.2.2.2.2.2.2.2.2.2.2.2.2.2.2.2.2.2.",
"2.2.2.2.2.2.2.2.2.2.2.2.2.2.2.2.2.2.2.2.2.2.2.2.2.2.2.2.2.2.2.2.2.2.2.2.2.2.2.2.2.2.2.2.2.2.2.2.",
"{.{.{.{.g.{.{.{.{.{.{.{.{.{.{.{.{.{.{.g.{.{.{.{.{.{.{.{.{.{.{.{.{.{.g.{.{.{.{.{.{.{.{.{.{.{.{.{.",
"{.{.{.{.g.{.{.{.{.{.{.{.{.{.{.{.{.{.{.g.{.{.{.{.{.{.{.{.{.{.{.{.{.{.g.{.{.{.{.{.{.{.{.{.{.{.{.{.",
"{.{.{.{.g.{.{.{.{.{.{.{.{.{.{.{.{.{.{.g.p.y.y.y.y.y.y.u.{.{.{.{.{.{.g.{.{.{.{.{.{.{.{.{.{.{.{.{.",
"{.{.{.{.g.{.{.{.{.{.{.{.{.{.{.{.{.{.{.g., . .         > {.{.{.{.{.{.g.{.{.{.{.{.{.{.{.{.{.{.{.{.",
"{.{.{.{.g.{.{.{.{.{.{.{.{.{.{.{.{.{.p.h 3.d.k.E.x.E.E.a.4 7 {.{.{.{.g.{.{.{.{.{.{.{.{.{.{.{.{.{.",
"{.{.{.{.g.{.{.{.{.{.{.{.{.{.{.{.{.{.O w.M.Z. X}. X X}.XXoXoX@ &.{.{.g.{.{.{.{.{.{.{.{.{.{.{.{.{.",
"{.{.{.{.g.{.{.{.{.{.{.{.{.{.{.{.6.W Q :.n._. X}. X X}. X X.X+ / {.{.g.{.{.{.{.{.{.{.{.{.{.{.{.{.",
"{.{.{.{.g.{.{.{.{.{.{.{.{.{.{.p.L | U.L.c._.}..XN.N.N.N.C.'.Q.<.i.{.g.{.{.{.{.{.{.{.{.{.{.{.{.{.",
"{.{.{.{.g.{.{.{.{.{.{.{.{.{.{.u.K S.I.U.z.`.}..XM.B.M.n.Z. XXX<.y.{.g.{.{.{.{.{.{.{.{.{.{.{.{.{.",
"{.{.{.{.g.{.{.{.{.{.{.{.{.{.{.u.H 7.S.F.d.'.(././.~.Z.|././.(.{ u.{.g.{.{.{.{.{.{.{.{.{.{.{.{.{.",
"{.{.{.{.g.{.{.{.{.{.{.{.{.{.{.i.F { q.q.4.!.^.I.I.L.m.|.Y.Y.T.] u.{.g.{.{.{.{.{.{.{.{.{.{.{.{.{.",
"{.{.{.{.g.{.{.{.{.{.{.{.{.{.{.u.; 7 u D.4.m.N.[.$ -.B.h.- 3 B._ u.{.g.{.{.{.{.{.{.{.{.{.{.{.{.{.",
"{.{.{.{.g.{.{.{.{.{.{.{.{.{.{.u.<.|.:.0.e.)..XoX5 ]..Xv.F W.'.>.u.{.g.{.{.{.{.{.{.{.{.{.{.{.{.{.",
"{.{.{.{.g.{.{.{.{.{.{.{.{.{.{.i.E c.d.,.3.'.XXXX!.]..X}.=.h XX<.u.{.g.{.{.{.{.{.{.{.{.{.{.{.{.{.",
"{.{.{.{.g.{.{.{.{.{.{.{.{.{.{.p.i 1.d.>.6.v.). X}.l.m.Z.%.% _.*.u.{.g.{.{.{.{.{.{.{.{.{.{.{.{.{.",
"{.{.{.{.g.{.{.{.{.{.{.{.{.{.{.{./ X &.{ q.x.V.).W.t.t.a.6.~ a.W u.{.g.{.{.{.{.{.{.{.{.{.{.{.{.{.",
"{.{.{.{.g.{.{.{.{.{.{.{.{.{.{.{._ o ; ` 9.K.x.W.I.J.D.D.J.T.<.L u.{.g.{.{.{.{.{.{.{.{.{.{.{.{.{.",
"{.{.{.{.g.{.{.{.{.{.{.{.{.{.i.1.0 z , Q 8.9.D.F.Y.P.Y.Y.U.Y.T.[ u.{.g.{.{.{.{.{.{.{.{.{.{.{.{.{.",
"{.{.{.{.g.{.{.{.{.{.{.{.{.{.3 : z z l : ~ } F.Y.P.8.J.P.J.U.R.[ y.{.g.{.{.{.{.{.{.{.{.{.{.{.{.{.",
"{.{.{.{.g.{.{.{.{.{.{.{.{.{., &  .X...j > g [ 7.P.H.P.P.U.U.6 W K.{.g.{.{.{.{.{.{.{.{.{.{.{.{.{.",
"{.{.{.{.g.{.{.{.{.{.{.{.{.( s x #.#.+. . .i # * } A.P.P.q.| X I {.{.g.{.{.{.{.{.{.{.{.{.{.{.{.{.",
"{.{.{.{.g.{.{.{.{.{.{.{.{.W s z #.#.w z ..b q i G K Q Q W U w c s.{.g.{.{.{.{.{.{.{.{.{.{.{.{.{.",
"{.{.{.{.g.{.{.{.{.{.{.{.{.W s  . .d & v O.#.+.#.k k s e q s +.o.t 4 ' {.{.{.{.{.{.{.{.{.{.{.{.{.",
"{.{.{.{.g.{.{.{.{.{.{.{.{.W s z  .p & b O.#.+.#.z z  .k , s O.+.y t ( i.{.{.{.{.{.{.{.{.{.{.{.{.",
"{.{.{.{.g.{.{.{.{.{.{.{.{.W d z z p & b  .X.+.+.#.#.+.l * 8 8 n b.`.s.<._ {.{.{.{.{.{.{.{.{.{.{.",
"{.{.{.{.g.{.{.{.{.{.{.{.{.^ p z z p & l z ..+.#.+.+.#.s # X X @.n.V. XXX3 {.{.{.{.{.{.{.{.{.{.{.",
"{.{.{.{.g.{.{.{.{.{.{.{.{.^ w a #.#.% k z b l z z z z k ) {.{.' O , c.N., {.{.{.{.{.{.{.{.{.{.{.",
"{.{.{.{.g.{.{.{.{.{.{.{.{.^ n $.r.5.+ 4 y r r r r t y , ` {.{.' : 0 ( ) / {.{.{.{.{.{.{.{.{.{.{.",
"{.{.{.{.g.{.{.{.{.{.{.{.{.W ;.f._.N.+ 2 V C A A A A Z N ' {.{.{.0 w P y.{.{.{.{.{.{.{.{.{.{.{.{.",
"{.{.{.{.g.{.{.{.{.{.{.{.{.*.1.e.V.j.= B S D J J J J J A ' {.{.{.w 9 ^ {.{.{.{.{.{.{.{.{.{.{.{.{.",
"{.{.{.{.g.{.{.{.{.{.{.{.{.{.*.U m m 2 A D S G Y $ Z D Z ! {.{.' f a ^ {.{.{.{.{.{.{.{.{.{.{.{.{.",
"{.{.{.{.g.{.{.{.{.{.{.{.{.{.{.u.X # B Z D A ^ {.$ A D Z Y {.{.{ f a ^ {.{.{.{.{.{.{.{.{.{.{.{.{.",
"{.{.{.{.g.{.{.{.{.{.{.{.{.{.{.{.I + B Z J J ^ {.= A D B Y {.{.' f d ^ {.{.{.{.{.{.{.{.{.{.{.{.{.",
"{.{.{.{.g.{.{.{.{.{.{.{.{.{.{.{.I + V S D A ^ {.$ A D B ! {.{.' f a ^ {.{.{.{.{.{.{.{.{.{.{.{.{.",
"{.{.{.{.g.{.{.{.{.{.{.{.{.{.{.{.I + V A V N ^ {.= Z S M Y {.{.' f a ^ {.{.{.{.{.{.{.{.{.{.{.{.{.",
"{.{.{.{.g.{.{.{.{.{.{.{.{.{.{.{.I # M N V N ^ {.$ B B M ! {.{.{ f a ^ {.{.{.{.{.{.{.{.{.{.{.{.{.",
"{.{.{.{.g.{.{.{.{.{.{.{.{.{.{.{.T + < 2 N N ) {.$ 1 1 N G T {.{ e p T {.{.{.{.{.{.{.{.{.{.{.{.{.",
"{.{.{.{.g.{.{.{.{.{.{.{.{.{.y.y.P + + # % % P G.+ + + = + @ p.Y & & ^ {.{.{.{.{.{.{.{.{.{.{.{.{.",
"{.{.{.{.g.{.{.{.{.{.{.{.{.{.u.u.^ r 5 5 5 5 R G.5 4 4 4 5 4 u.' 4 4 *.{.{.{.{.{.{.{.{.{.{.{.{.{.",
"{.{.{.{.g.{.{.{.{.{.{.{.{.{.{.{.{.{.{.g.{.{.{.{.{.{.{.{.{.{.{.{.{.{.g.{.{.{.{.{.{.{.{.{.{.{.{.{.",
"2.2.2.2.2.2.2.2.2.2.2.2.2.2.2.2.2.2.2.2.2.2.2.2.2.2.2.2.2.2.2.2.2.2.2.2.2.2.2.2.2.2.2.2.2.2.2.2.",
"2.2.2.2.2.2.2.2.2.2.2.2.2.2.2.2.2.2.2.2.2.2.2.2.2.2.2.2.2.2.2.2.2.2.2.2.2.2.2.2.2.2.2.2.2.2.2.2.",
"2.2.2.2.2.2.2.2.2.2.2.2.2.2.2.2.2.2.2.2.2.2.2.2.2.2.2.2.2.2.2.2.2.2.2.2.2.2.2.2.2.2.2.2.2.2.2.2.",
"2.2.2.2.2.2.2.2.2.2.2.2.2.2.2.2.2.2.2.2.2.2.2.2.2.2.2.2.2.2.2.2.2.2.2.2.2.2.2.2.2.2.2.2.2.2.2.2."
};
