/* XPM */
static char *_72800e39f854386cb68984664e3a80cr0awOuz8Q3CIKFSe[] = {
/* columns rows colors chars-per-pixel */
"48 48 188 2 ",
"   c #3C110E",
".  c #3B1311",
"X  c #43130A",
"o  c #451911",
"O  c #4B1C15",
"+  c #4C1D1B",
"@  c #581D18",
"#  c #621908",
"$  c #5A2118",
"%  c #632206",
"&  c #6B261C",
"*  c #612A1D",
"=  c #7D251A",
"-  c #76291D",
";  c #512222",
":  c #532C24",
">  c #5F2B24",
",  c #5E3733",
"<  c #602C22",
"1  c #722C24",
"2  c #63352B",
"3  c #683428",
"4  c #663A2E",
"5  c #72382A",
"6  c #623532",
"7  c #663B32",
"8  c #6A3C32",
"9  c #6A3E39",
"0  c #753C31",
"q  c #7A492B",
"w  c #6B4334",
"e  c #77473A",
"r  c #7D4F41",
"t  c #795548",
"y  c #7E5C4A",
"u  c #7A5751",
"i  c #852C1C",
"p  c #8A2C1C",
"a  c #962E1C",
"s  c #AD2E1D",
"d  c #AE301D",
"f  c #B2381E",
"g  c #8B2C20",
"h  c #A93525",
"j  c #B93820",
"k  c #BA3920",
"l  c #C13618",
"z  c #C43A1F",
"x  c #C43A22",
"c  c #BD491B",
"v  c #934D29",
"b  c #804332",
"n  c #944F38",
"m  c #8F5634",
"M  c #905532",
"N  c #A34725",
"B  c #BB4422",
"V  c #AE4531",
"C  c #AA5E33",
"Z  c #BA5730",
"A  c #97613E",
"S  c #C14318",
"D  c #C94324",
"F  c #CA4526",
"G  c #CC4C24",
"H  c #D34D25",
"J  c #C75627",
"K  c #CD5926",
"L  c #CD522C",
"P  c #CC5A2A",
"I  c #D55426",
"U  c #D5522A",
"Y  c #DB5A2A",
"T  c #DD5C2B",
"R  c #D25630",
"E  c #DA6728",
"W  c #DE6628",
"Q  c #D96A36",
"!  c #DC6B3A",
"~  c #D97438",
"^  c #E4642B",
"/  c #E36C2D",
"(  c #E0712F",
")  c #E56135",
"_  c #E66C31",
"`  c #E86E31",
"'  c #E67639",
"]  c #EC7E3C",
"[  c #8F5D43",
"{  c #815F4E",
"}  c #945449",
"|  c #935F4A",
" . c #936048",
".. c #9B674D",
"X. c #8C6857",
"o. c #9A6955",
"O. c #936C5D",
"+. c #AC6B42",
"@. c #B27C5B",
"#. c #996E63",
"$. c #987569",
"%. c #957E71",
"&. c #9C7C71",
"*. c #C37741",
"=. c #E46F42",
"-. c #6C9E5E",
";. c #B6825F",
":. c #9F8176",
">. c #9E8178",
",. c #A0806C",
"<. c #B78560",
"1. c #BE8A65",
"2. c #A7887A",
"3. c #B49279",
"4. c #D68444",
"5. c #EB8647",
"6. c #F28F49",
"7. c #ED924A",
"8. c #F3954D",
"9. c #F3994F",
"0. c #EA8E59",
"q. c #F49A51",
"w. c #F99951",
"e. c #C1AD5F",
"r. c #F2A15F",
"t. c #C38D68",
"y. c #C89878",
"u. c #F09B63",
"i. c #CFA97F",
"p. c #D5A377",
"a. c #DBA474",
"s. c #DCA579",
"d. c #DFAA7D",
"f. c #F1A566",
"g. c #AA8B82",
"h. c #A79082",
"j. c #B09284",
"k. c #BFA28C",
"l. c #C19F87",
"z. c #C3A48C",
"x. c #CCAB88",
"c. c #D7AB83",
"v. c #DCAD83",
"b. c #CBAB9C",
"n. c #D4AF9A",
"m. c #CEB398",
"M. c #D8B893",
"N. c #D2B69A",
"B. c #D6BB9E",
"V. c #D8BC9B",
"C. c #E9B986",
"Z. c #E2BC8F",
"A. c #EAB98E",
"S. c #E4BD91",
"D. c #EBBD93",
"F. c #CBB5A1",
"G. c #CAB8AA",
"H. c #D7B6A3",
"J. c #D4BEA5",
"K. c #D8BDA0",
"L. c #EEC28A",
"P. c #F6C288",
"I. c #E9D98C",
"U. c #EAC499",
"Y. c #F2C794",
"T. c #F3CA94",
"R. c #D6C3AD",
"E. c #DAC4A8",
"W. c #D5C3B1",
"Q. c #D9C4B2",
"!. c #DEC9B3",
"~. c #DCC9BA",
"^. c #EECDA4",
"/. c #E7CAAC",
"(. c #F1CCA3",
"). c #EFD0A7",
"_. c #EFD1AA",
"`. c #F1D0A7",
"'. c #F2D4AD",
"]. c #E3CDB2",
"[. c #E6D2B8",
"{. c #E7D4BB",
"}. c #E5D4C1",
"|. c #ECDBC4",
" X c #EDDFC8",
".X c #F1DEC7",
"XX c #F1DEC8",
"oX c #F3E2CD",
/* pixels */
"-.-.-.-.-.-.-.-.-.-.-.-.-.-.-.-.-.-.-.-.-.-.-.-.-.-.-.-.-.-.-.-.-.-.-.-.-.-.-.-.-.-.-.-.-.-.-.-.",
"-.-.-.-.-.-.-.-.-.-.-.-.-.-.-.-.-.-.-.-.-.-.-.-.-.-.-.-.-.-.-.-.-.-.-.-.-.-.-.-.-.-.-.-.-.-.-.-.",
"-.-.-.-.-.-.-.-.-.-.-.-.-.-.-.-.-.-.-.-.-.-.-.-.-.-.-.-.-.-.-.-.-.-.-.-.-.-.-.-.-.-.-.-.-.-.-.-.",
"-.-.-.-.-.-.-.-.-.-.-.-.-.-.-.-.-.-.-.-.-.-.-.-.-.-.-.-.-.-.-.-.-.-.-.-.-.-.-.-.-.-.-.-.-.-.-.-.",
"I.I.I.I.e.I.I.I.I.I.I.I.I.I.I.I.I.I.I.e.I.I.I.I.I.I.I.I.I.I.I.I.I.I.e.I.I.I.I.I.I.I.I.I.I.I.I.I.",
"I.I.I.I.e.I.I.I.I.I.I.I.I.I.I.I.I.I.I.e.I.I.I.I.I.I.I.I.I.I.I.I.I.I.e.I.I.I.I.I.I.I.I.I.I.I.I.I.",
"I.I.I.I.e.I.I.I.I.I.I.I.I.I.I.I.I.I.I.e.I.I.I.I.I.I.I.I.I.I.I.I.I.I.e.I.I.I.I.I.I.I.I.I.I.I.I.I.",
"I.I.I.I.e.I.I.I.I.I.I.I.I.I.I.I.I.I.I.e.I.I.I.I.I.I.I.I.I.I.I.I.I.I.e.I.I.I.I.I.I.I.I.I.I.I.I.I.",
"I.I.I.I.e.I.I.I.I.I.I.I.I.I.I.I.I.I.I.e.I.I.I.I.I.I.I.I.I.I.I.I.I.I.e.I.I.I.I.I.I.I.I.I.I.I.I.I.",
"I.I.I.I.e.I.I.I.I.I.I.I.I.I.I.I.I.I.I.e.I.I.I.I.I.I.I.I.I.I.I.I.I.I.e.I.I.I.I.I.I.I.I.I.I.I.I.I.",
"I.I.I.I.e.I.I.I.I.I.I.I.I.I.I.I.I.I.I.e.I.I.I.I.I.I.I.I.I.I.I.I.I.I.e.I.I.I.I.I.I.I.I.I.I.I.I.I.",
"I.I.I.I.e.I.I.I.I.I.I.I.I.I.I.I.I.I.I.e.I.I.I.I.I.I.I.I.I.I.I.I.I.I.e.I.I.I.I.I.I.I.I.I.I.I.I.I.",
"I.I.I.I.e.I.I.I.I.I.I.I.I.I.I.I.I.I.I.e.I.I.I.I.I.I.I.I.I.I.I.I.I.I.e.I.I.I.I.I.I.I.I.I.I.I.I.I.",
"I.I.I.I.e.I.I.I.I.I.I.I.I.I.I.I.I.I.I.e.I.I.I.I.I.I.I.I.I.I.I.I.I.I.e.I.I.I.I.I.I.I.I.I.I.I.I.I.",
"I.I.I.I.e.I.I.I.I.I.I.I.I.I.I.I.I.I.I.e.I.I.I.I.I.I.I.I.I.I.I.I.I.I.e.I.I.I.I.I.I.I.I.I.I.I.I.I.",
"I.I.I.I.e.I.I.I.I.I.I.I.I.}.W.W.R.8 > < $ @ @ * * > @ 6 W.W.I.I.I.I.e.I.I.I.I.I.I.I.I.I.I.I.I.I.",
"I.I.I.I.e.I.I.I.I.I.I.I.I.%..     Z u.r.J x L 7.q.f.V g . . I.I.I.I.e.I.I.I.I.I.I.I.I.I.I.I.I.I.",
"I.I.I.I.e.I.I.I.I.I.I.u 7 A 4.d d Y ` ` G x x F _ _ T I B K , 6 !.I.e.I.I.I.I.I.I.I.I.I.I.I.I.I.",
"I.I.I.I.e.I.I.I.I.I.G.q M *.9.z x Y ) _ K c J x ) ^ ' E G H v % $.I.e.I.I.I.I.I.I.I.I.I.I.I.I.I.",
"I.I.I.I.e.I.I.I.I.:.} ~ ] ] ] ! Q U z L 5.q.8.! x G 6.9.5.Q ! ] N :.F.I.I.I.I.I.I.I.I.I.I.I.I.I.",
"I.I.I.I.e.I.I.I.I.+ p T ^ ^ W 9.9./ S x =.w.9.9.l x 5.8.9.9.D E E + >.I.I.I.I.I.I.I.I.I.I.I.I.I.",
"I.I.I.I.e.I.I.I.!.7 +.R F Q 6.q.q.9.q.' U ^ 6.6.^ U T ^ ^ ^ G 8.6.9.C b.Q.Q.Q.Q.}.I.I.I.I.I.I.I.",
"I.I.I.I.e.I.I.I.9 T.T.r.7.^ ^ 9.9.9.q.q.Q D ^ ^ ^ U T ^ ^ ^ D ^ ^ 9.! # + + + O %.I.I.I.I.I.I.I.",
"I.I.I.I.e.I.I.I.9 T.T.P.P.0.^ ' w.9.( _ Y D ^ ^ ^ U j f p & & j Y _ I L K P P P n 6 t I.I.I.I.I.",
"I.I.I.I.e.I.I.I.9 s.C.T.T.T.T.7.W ^ ^ ^ I z x s s 1 + +  .a.1.o + O p z D I d s s O , I.I.I.I.I.",
"I.I.I.I.e.I.I.I.j. .1.Y.T.T.T.f.] / ^ ^ H j i = = b  . .;.a.c.[  .O & j x I G = = #.h.I.I.I.I.I.",
"I.I.I.I.e.I.I.I.I.~.&.2 q C.T.Y.P.' ^ N $ 3 1.1.m.v.U.(.(.(.'.^.d.X $.5 @ - f h 1 W.I.I.I.I.I.I.",
"I.I.I.I.e.I.I.I.I.W.&.2 e y.c.L.L.Q K v 2 e s.d.'.U.^.'.'.'.'.'.d.X 2.u 9 0 a h 1 W.I.I.I.I.I.I.",
"I.I.I.I.e.I.I.I.I.+ | A.v.o.o.m M ..o.y.D.A.v.).'.'.'.'.(.'._.M...#.k.{.I.~.g.2.2.}.I.I.I.I.I.I.",
"I.I.I.I.e.I.I.I.I.+ | ^.^.s.a.O O t.s.D.'.'.Z._.'.'.'.'.'.'.^.p.2 /.K.!.I.I.I.I.I.I.I.I.I.I.I.I.",
"I.I.I.I.e.I.I.I.I.I.2.<.p.'._.S.Z._.'.'.'.'.'.'.'.U.i.x.V.V.@.; k.B.B.B.K.].I.I.I.I.I.I.I.I.I.I.",
"I.I.I.I.e.I.I.I.I.E.m.e r S.U.`.).'.'.(.^.'.'.'.S.S.w : : : 2 ,.m.B.B.B.E.I.I.I.I.I.I.I.I.I.I.I.",
"I.I.I.I.e.I.I.I.I.XX].z.3.2 4 r v.^.'.'.3.8 8 7 4 7 3.l.l.l.z.B.B..XXXXXoXI.I.I.I.I.I.I.I.I.I.I.",
"I.I.I.I.e.I.I.I.I.I.|.!.F.{ { X.y.n.H.H.2.t y y y y x.B.B.B.K.E.R.I.e.I.I.I.I.I.I.I.I.I.I.I.I.I.",
"I.I.I.I.e.I.I.I.I.I.I.I.I.[.[.J.X.O.O.O.z.B.B.B.B.B.].[.[.[.{.oXI.I.e.I.I.I.I.I.I.I.I.I.I.I.I.I.",
"I.I.I.I.e.I.I.I.I.I.I.I.I.I.I. XJ.B.N.N.B.B.N.B.B.B. XI.I.I.I.I.I.I.e.I.I.I.I.I.I.I.I.I.I.I.I.I.",
"I.I.I.I.e.I.I.I.I.I.I.I.I.I.I.I.I.I.I.e.I.I.I.I.I.I.I.I.I.I.I.I.I.I.e.I.I.I.I.I.I.I.I.I.I.I.I.I.",
"I.I.I.I.e.I.I.I.I.I.I.I.I.I.I.I.I.I.I.e.I.I.I.I.I.I.I.I.I.I.I.I.I.I.e.I.I.I.I.I.I.I.I.I.I.I.I.I.",
"I.I.I.I.e.I.I.I.I.I.I.I.I.I.I.I.I.I.I.e.I.I.I.I.I.I.I.I.I.I.I.I.I.I.e.I.I.I.I.I.I.I.I.I.I.I.I.I.",
"I.I.I.I.e.I.I.I.I.I.I.I.I.I.I.I.I.I.I.e.I.I.I.I.I.I.I.I.I.I.I.I.I.I.e.I.I.I.I.I.I.I.I.I.I.I.I.I.",
"I.I.I.I.e.I.I.I.I.I.I.I.I.I.I.I.I.I.I.e.I.I.I.I.I.I.I.I.I.I.I.I.I.I.e.I.I.I.I.I.I.I.I.I.I.I.I.I.",
"I.I.I.I.e.I.I.I.I.I.I.I.I.I.I.I.I.I.I.e.I.I.I.I.I.I.I.I.I.I.I.I.I.I.e.I.I.I.I.I.I.I.I.I.I.I.I.I.",
"I.I.I.I.e.I.I.I.I.I.I.I.I.I.I.I.I.I.I.e.I.I.I.I.I.I.I.I.I.I.I.I.I.I.e.I.I.I.I.I.I.I.I.I.I.I.I.I.",
"I.I.I.I.e.I.I.I.I.I.I.I.I.I.I.I.I.I.I.e.I.I.I.I.I.I.I.I.I.I.I.I.I.I.e.I.I.I.I.I.I.I.I.I.I.I.I.I.",
"-.-.-.-.-.-.-.-.-.-.-.-.-.-.-.-.-.-.-.-.-.-.-.-.-.-.-.-.-.-.-.-.-.-.-.-.-.-.-.-.-.-.-.-.-.-.-.-.",
"-.-.-.-.-.-.-.-.-.-.-.-.-.-.-.-.-.-.-.-.-.-.-.-.-.-.-.-.-.-.-.-.-.-.-.-.-.-.-.-.-.-.-.-.-.-.-.-.",
"-.-.-.-.-.-.-.-.-.-.-.-.-.-.-.-.-.-.-.-.-.-.-.-.-.-.-.-.-.-.-.-.-.-.-.-.-.-.-.-.-.-.-.-.-.-.-.-.",
"-.-.-.-.-.-.-.-.-.-.-.-.-.-.-.-.-.-.-.-.-.-.-.-.-.-.-.-.-.-.-.-.-.-.-.-.-.-.-.-.-.-.-.-.-.-.-.-."
};
