/* XPM */
static char *_95d4bf297834f48a4f6a4d633bf43282KUoXDU0DGFi3xZx[] = {
/* columns rows colors chars-per-pixel */
"48 48 171 2 ",
"   c #242423",
".  c #2C2527",
"X  c #282927",
"o  c #2E272B",
"O  c #2C2A29",
"+  c #372B23",
"@  c #30272D",
"#  c #332B2D",
"$  c #2E322C",
"%  c #3F3921",
"&  c #33342D",
"*  c #3E312D",
"=  c #39392C",
"-  c #333731",
";  c #383131",
":  c #343930",
">  c #3F3937",
",  c #572B0D",
"<  c #402726",
"1  c #492B24",
"2  c #512C2B",
"3  c #483A29",
"4  c #4F3F31",
"5  c #463C39",
"6  c #6C352E",
"7  c #4F462E",
"8  c #444133",
"9  c #4D4134",
"0  c #534436",
"q  c #5E4338",
"w  c #684436",
"e  c #4D4444",
"r  c #544943",
"t  c #5B524D",
"y  c #585650",
"u  c #674E40",
"i  c #675043",
"p  c #695D56",
"a  c #746254",
"s  c #7F6A57",
"d  c #7E6758",
"f  c #7F6F61",
"g  c #83341C",
"h  c #9F3A29",
"j  c #85432E",
"k  c #8E422D",
"l  c #90542F",
"z  c #894B3A",
"x  c #8E5133",
"c  c #935435",
"v  c #955F3E",
"b  c #BE4C2E",
"n  c #AE5723",
"m  c #A65029",
"M  c #86623D",
"N  c #99683E",
"B  c #A5653D",
"V  c #A4723D",
"C  c #C74221",
"Z  c #CA532E",
"A  c #CA5435",
"S  c #DA5632",
"D  c #EE5C2F",
"F  c #E75832",
"G  c #EE5C31",
"H  c #F15C35",
"J  c #D56C3A",
"K  c #D47137",
"L  c #D1723B",
"P  c #E36535",
"I  c #ED6132",
"U  c #F16434",
"Y  c #F36D36",
"T  c #F46B3A",
"R  c #FA6D3B",
"E  c #E77A3A",
"W  c #F5743A",
"Q  c #FB773D",
"!  c #F67E3B",
"~  c #FA7E3D",
"^  c #815041",
"/  c #925C41",
"(  c #A25846",
")  c #806C58",
"_  c #896B59",
"`  c #906D59",
"'  c #89755F",
"]  c #A76846",
"[  c #847262",
"{  c #8E7660",
"}  c #84786B",
"|  c #8A786F",
" . c #967C68",
".. c #987F6A",
"X. c #877B71",
"o. c #877F78",
"O. c #FC7B41",
"+. c #6C9E5E",
"@. c #F6813D",
"#. c #F8823E",
"$. c #AB8357",
"%. c #97816F",
"&. c #9D836E",
"*. c #8D8277",
"=. c #8B827B",
"-. c #928173",
";. c #9F8671",
":. c #A2866B",
">. c #A08771",
",. c #A68C74",
"<. c #A89177",
"1. c #AF9278",
"2. c #AD987E",
"3. c #B2967A",
"4. c #B59979",
"5. c #D8884B",
"6. c #D79459",
"7. c #D7995E",
"8. c #EF8540",
"9. c #ED8B47",
"0. c #F58541",
"q. c #FB8542",
"w. c #F68942",
"e. c #FC8C45",
"r. c #FC8D4A",
"t. c #F6954D",
"y. c #FB934C",
"u. c #F99C54",
"i. c #C1AD5F",
"p. c #FCA35B",
"a. c #FFA162",
"s. c #8F8884",
"d. c #908884",
"f. c #9F9485",
"g. c #AA9D89",
"h. c #B39B82",
"j. c #B8A38C",
"k. c #B6A398",
"l. c #BEB2A3",
"z. c #C2A384",
"x. c #C6A98A",
"c. c #CAAC8D",
"v. c #C4AE92",
"b. c #CBAE91",
"n. c #C6AC9B",
"m. c #CDB293",
"M. c #C4B49E",
"N. c #D1B597",
"B. c #D4BB9E",
"V. c #DABE9E",
"C. c #C6B8A9",
"Z. c #D6BEA1",
"A. c #DBBFA1",
"S. c #E9D98C",
"D. c #DBC3A5",
"F. c #D6C3AB",
"G. c #DCC5AA",
"H. c #DFC9AB",
"J. c #CDC3B2",
"K. c #D6CBBE",
"L. c #E4CCAE",
"P. c #E5CEB3",
"I. c #E6D1B6",
"U. c #EAD2B5",
"Y. c #E6D3BC",
"T. c #EAD5BC",
"R. c #F1DBBE",
"E. c #D3C9C0",
"W. c #DBD0C1",
"Q. c #EFDAC2",
"!. c #F1DCC1",
/* pixels */
"+.+.+.+.+.+.+.+.+.+.+.+.+.+.+.+.+.+.+.+.+.+.+.+.+.+.+.+.+.+.+.+.+.+.+.+.+.+.+.+.+.+.+.+.+.+.+.+.",
"+.+.+.+.+.+.+.+.+.+.+.+.+.+.+.+.+.+.+.+.+.+.+.+.+.+.+.+.+.+.+.+.+.+.+.+.+.+.+.+.+.+.+.+.+.+.+.+.",
"+.+.+.+.+.+.+.+.+.+.+.+.+.+.+.+.+.+.+.+.+.+.+.+.+.+.+.+.+.+.+.+.+.+.+.+.+.+.+.+.+.+.+.+.+.+.+.+.",
"+.+.+.+.+.+.+.+.+.+.+.+.+.+.+.+.+.+.+.+.+.+.+.+.+.+.+.+.+.+.+.+.+.+.+.+.+.+.+.+.+.+.+.+.+.+.+.+.",
"S.S.S.S.i.S.S.S.S.S.S.S.S.S.S.S.S.S.S.i.S.S.S.S.S.S.S.S.S.S.S.S.S.S.i.S.S.S.S.S.S.S.S.S.S.S.S.S.",
"S.S.S.S.i.S.S.S.S.S.S.S.S.S.S.S.S.S.S.i.S.S.S.S.S.S.S.S.S.S.S.S.S.S.i.S.S.S.S.S.S.S.S.S.S.S.S.S.",
"S.S.S.S.i.S.S.S.S.S.S.S.S.S.S.S.S.S.S.i.S.S.S.S.S.S.S.S.S.S.S.S.S.S.i.S.S.S.S.S.S.S.S.S.S.S.S.S.",
"S.S.S.S.i.S.S.S.S.S.S.S.S.S.S.S.S.S.S.i.S.S.S.S.S.S.S.S.S.S.S.S.S.S.i.S.S.S.S.S.S.S.S.S.S.S.S.S.",
"S.S.S.S.i.S.S.S.S.S.S.S.S.S.S.S.S.S.S.i.S.S.S.S.S.S.S.S.S.S.S.S.S.S.i.S.S.S.S.S.S.S.S.S.S.S.S.S.",
"S.S.S.S.i.S.S.S.S.S.S.S.S.S.S.S.S.S.S.i.S.S.S.S.S.S.S.S.S.S.S.S.S.S.i.S.S.S.S.S.S.S.S.S.S.S.S.S.",
"S.S.S.S.i.S.S.S.S.S.S.S.S.S.S.S.S.S.S.i.S.S.S.S.S.S.S.S.S.S.S.S.S.S.i.S.S.S.S.S.S.S.S.S.S.S.S.S.",
"S.S.S.S.i.S.S.S.S.S.S.S.S.S.S.S.S.S.S.i.S.S.S.S.S.S.S.S.S.S.S.S.S.S.i.S.S.S.S.S.S.S.S.S.S.S.S.S.",
"S.S.S.S.i.S.S.S.S.S.S.S.S.S.S.S.S.S.S.i.S.S.S.S.S.S.S.S.S.S.S.S.S.S.i.S.S.S.S.S.S.S.S.S.S.S.S.S.",
"S.S.S.S.i.S.S.S.S.S.S.S.S.S.S.S.S.S.S.i.S.S.S.S.S.S.S.S.S.S.S.S.S.S.i.S.S.S.S.S.S.S.S.S.S.S.S.S.",
"S.S.S.S.i.S.S.S.S.S.S.S.S.S.S.S.S.S.S.i.S.S.S.S.S.S.S.S.S.S.S.S.S.S.i.S.S.S.S.S.S.S.S.S.S.S.S.S.",
"S.S.S.S.i.S.S.S.S.S.S.S.S.S.S.S.S.S.S.i.S.S.S.S.S.S.S.S.S.S.S.S.S.S.i.S.S.S.S.S.S.S.S.S.S.S.S.S.",
"S.S.S.S.i.S.S.S.S.S.S.S.S.S.S.S.S.S.S.i.S.S.S.S.S.S.S.S.S.S.S.S.S.S.i.S.S.S.S.S.S.S.S.S.S.S.S.S.",
"S.S.S.S.i.S.S.S.S.S.S.S.S.S.S.S.S.S.S.i.S.S.S.S.S.S.S.S.S.S.S.S.S.S.i.S.S.S.S.S.S.S.S.S.S.S.S.S.",
"S.S.S.S.i.S.S.S.S.S.S.S.S.S.S.S.S.S.S.i.S.S.S.S.S.S.S.S.S.S.S.S.S.S.i.S.S.S.S.S.S.S.S.S.S.S.S.S.",
"S.S.S.S.i.S.S.S.S.S.S.S.S.S.S.S.S.S.S.i.S.S.S.S.S.S.S.S.S.S.S.S.S.S.i.S.S.S.S.S.S.S.S.S.S.S.S.S.",
"S.S.S.S.i.S.S.S.S.S.S.S.S.S.S.S.S.S.S.i.S.S.S.S.S.S.S.S.S.S.S.S.S.S.i.S.S.S.S.S.S.S.S.S.S.S.S.S.",
"S.S.S.S.i.S.S.S.S.S.S.S.S.S.S.S.S.S.S.i.S.=.o o o @ @ o o o o C.S.S.i.S.S.S.S.S.S.S.S.S.S.S.S.S.",
"S.S.S.S.i.S.S.S.S.S.S.S.S.S.S.S.S.X.=.o.o.y O 3 v c c c c v x | =.l.i.S.S.S.S.S.S.S.S.S.S.S.S.S.",
"S.S.S.S.i.S.S.S.S.S.S.S.S.S.S.e e L 5.6.$ $ $ - 0 7 u.! ! q.y.E K / W.S.S.S.S.S.S.S.S.S.S.S.S.S.",
"S.S.S.S.i.S.S.S.S.S.S.S.S.E.C., , @.y.a.3 3 & & & = 7.0.@.#.y.w.! m n.K.S.S.S.S.S.S.S.S.S.S.S.S.",
"S.S.S.S.i.S.S.S.S.S.S.S._ c B t.@.! @.@.r.y.V M & : 8 N 9.~ ! e.y.0.n / l.S.S.S.S.S.S.S.S.S.S.S.",
"S.S.S.S.i.S.S.S.S.S.J.k.l 0.y.p.9.8.@.! ! ! y.5.% : : : $.! ~ O.p.r.Q J d.S.S.S.S.S.S.S.S.S.S.S.",
"S.S.S.S.i.S.S.S.S.S.i w @.! ! ! p.p.t.0.! ! @.#.] 0 - : $ W I G ~ Y G Z s.S.S.S.S.S.S.S.S.S.S.S.",
"S.S.S.S.i.S.S.S.S.*.K q.t.! ! #.@.@.y.p.! ! ! ! W T $ $ $ H G G R U G A d.S.S.S.S.S.S.S.S.S.S.S.",
"S.S.S.S.i.S.S.S.S.*.K ! t.p.u.@.! ! @.q.u.~ U I U T X $ O H G D R U C h d.S.S.S.S.S.S.S.S.S.S.S.",
"S.S.S.S.i.S.S.S.S.*.Z I ~ ~ q.p.0.! ! ~ ! G G G U T X X X S 1 # . o . e S.S.S.S.S.S.S.S.S.S.S.S.",
"S.S.S.S.i.S.S.S.S.*.Z H T T @.y.y.! W T W G G G S A X X X z ` ' ) s + e S.S.S.S.S.S.S.S.S.S.S.S.",
"S.S.S.S.i.S.S.S.S.S.u 6 G G U ~ e.I G G Y G 6 2 1 < X X X j.Z.U.m.N.0 5 H.S.S.S.S.S.S.S.S.S.S.S.",
"S.S.S.S.i.S.S.S.S.S.} a z j U O.q.G G F ] ( q 9 9 9 X X X V.R.R.T.A.4 5 G.S.S.S.S.S.S.S.S.S.S.S.",
"S.S.S.S.i.S.S.S.S.S.f.*.X.-.k k P D b k f [ v.Z.L.G.X X   L.!.I.V.<.a [ G.S.S.S.S.S.S.S.S.S.S.S.",
"S.S.S.S.i.S.S.S.S.S.r e P.R.& & j g ^ [ D.D.H.L.T.T.X     L.D.g.%.a >.x.P.S.S.S.S.S.S.S.S.S.S.S.",
"S.S.S.S.i.S.S.S.S.S.p t F.T.R.!.p e -.Z.R.U.R.R.T.T.      h.:.r 5 [ m.B.S.S.S.S.S.S.S.S.S.S.S.S.",
"S.S.S.S.i.S.S.S.S.S.G.v.} j.M.!.U.R.R.R.U.R.H.B.2.[     & * * 1.m.b.Y.S.S.S.S.S.S.S.S.S.S.S.S.S.",
"S.S.S.S.i.S.S.S.S.S.S.Y.s > t !.D.!.R.!.D.!.x.4.a .     &.3.3.z.Q.T.i.S.S.S.S.S.S.S.S.S.S.S.S.S.",
"S.S.S.S.i.S.S.S.S.S.S.S.G.c.3.+ ; ; ; ; ; # # @ d x.b.c.c.S.S.S.S.S.i.S.S.S.S.S.S.S.S.S.S.S.S.S.",
"S.S.S.S.i.S.S.S.S.S.S.S.S.I.G.&.&.>.;.;.&... .{ ,.x.I.Y.T.S.S.S.S.S.i.S.S.S.S.S.S.S.S.S.S.S.S.S.",
"S.S.S.S.i.S.S.S.S.S.S.S.S.S.S.Y.Y.Y.Y.Y.Y.Y.Y.Y.Y.T.S.S.S.S.S.S.S.S.i.S.S.S.S.S.S.S.S.S.S.S.S.S.",
"S.S.S.S.i.S.S.S.S.S.S.S.S.S.S.S.S.S.S.i.S.S.S.S.S.S.S.S.S.S.S.S.S.S.i.S.S.S.S.S.S.S.S.S.S.S.S.S.",
"S.S.S.S.i.S.S.S.S.S.S.S.S.S.S.S.S.S.S.i.S.S.S.S.S.S.S.S.S.S.S.S.S.S.i.S.S.S.S.S.S.S.S.S.S.S.S.S.",
"+.+.+.+.+.+.+.+.+.+.+.+.+.+.+.+.+.+.+.+.+.+.+.+.+.+.+.+.+.+.+.+.+.+.+.+.+.+.+.+.+.+.+.+.+.+.+.+.",
"+.+.+.+.+.+.+.+.+.+.+.+.+.+.+.+.+.+.+.+.+.+.+.+.+.+.+.+.+.+.+.+.+.+.+.+.+.+.+.+.+.+.+.+.+.+.+.+.",
"+.+.+.+.+.+.+.+.+.+.+.+.+.+.+.+.+.+.+.+.+.+.+.+.+.+.+.+.+.+.+.+.+.+.+.+.+.+.+.+.+.+.+.+.+.+.+.+.",
"+.+.+.+.+.+.+.+.+.+.+.+.+.+.+.+.+.+.+.+.+.+.+.+.+.+.+.+.+.+.+.+.+.+.+.+.+.+.+.+.+.+.+.+.+.+.+.+."
};
