/* XPM */
static char *_10f43d302344d58a6a31586c6264da2nnYdUvDuHji8gNoY[] = {
/* columns rows colors chars-per-pixel */
"48 48 170 2 ",
"   c #3B291A",
".  c #481E16",
"X  c #4C1F18",
"o  c #671E1D",
"O  c #721E1D",
"+  c #781E1A",
"@  c #4B2013",
"#  c #522017",
"$  c #54231C",
"%  c #5B231E",
"&  c #42301D",
"*  c #65211C",
"=  c #75221F",
"-  c #7B211F",
";  c #5F1F21",
":  c #6B1F20",
">  c #7E1E21",
",  c #572524",
"<  c #5D2424",
"1  c #5D2825",
"2  c #5B2728",
"3  c #5D2929",
"4  c #433323",
"5  c #46372E",
"6  c #423632",
"7  c #463A35",
"8  c #4A3D35",
"9  c #473939",
"0  c #4D3F38",
"q  c #632524",
"w  c #6A2322",
"e  c #60262B",
"r  c #642B2B",
"t  c #752420",
"y  c #7D2322",
"u  c #732A27",
"i  c #7A2629",
"p  c #55463D",
"a  c #574A39",
"s  c #7D483F",
"d  c #5C4D41",
"f  c #5D5143",
"g  c #635345",
"h  c #675547",
"j  c #6C5E4D",
"k  c #7B5845",
"l  c #705D52",
"z  c #6F6054",
"x  c #736353",
"c  c #7B6A55",
"v  c #776D64",
"b  c #8B1C1D",
"n  c #81201F",
"m  c #8F221E",
"M  c #822423",
"N  c #8A2526",
"B  c #8B2A29",
"V  c #922423",
"C  c #9A2523",
"Z  c #982829",
"A  c #9C2C2C",
"S  c #932C30",
"D  c #9F2F30",
"F  c #913535",
"G  c #A42D2D",
"H  c #AA2B2A",
"J  c #A5312E",
"K  c #AE312D",
"L  c #A62E31",
"P  c #A92C30",
"I  c #A43131",
"U  c #AB3233",
"Y  c #B33434",
"T  c #BB3634",
"R  c #B73837",
"E  c #BF3936",
"W  c #B63839",
"Q  c #BC3A39",
"!  c #C13634",
"~  c #C33A36",
"^  c #CA3B36",
"/  c #C43738",
"(  c #C53B39",
")  c #CB3E3B",
"_  c #D23B37",
"`  c #C6423F",
"'  c #CD413E",
"]  c #D2423E",
"[  c #DA443E",
"{  c #8F5744",
"}  c #AD5E4E",
"|  c #C64443",
" . c #CD4343",
".. c #C94848",
"X. c #D34441",
"o. c #DA4641",
"O. c #D74843",
"+. c #DD4B45",
"@. c #DB4A4A",
"#. c #DF534D",
"$. c #E04B45",
"%. c #E4514B",
"&. c #E8554D",
"*. c #E65B54",
"=. c #EA5B53",
"-. c #F05B53",
";. c #EC6157",
":. c #EE695D",
">. c #F1645A",
",. c #F16C5F",
"<. c #F66D63",
"1. c #F47362",
"2. c #F57868",
"3. c #6C9E5E",
"4. c #98856D",
"5. c #9E8C76",
"6. c #9F8E7B",
"7. c #B8836E",
"8. c #A9926E",
"9. c #A78A73",
"0. c #AC9676",
"q. c #AD9876",
"w. c #A4937A",
"e. c #AB957B",
"r. c #AD9A7C",
"t. c #B29977",
"y. c #B0957A",
"u. c #B49C7B",
"i. c #B89F7E",
"p. c #B5A17D",
"a. c #B9A17F",
"s. c #C1AD5F",
"d. c #C68E7B",
"f. c #C9947F",
"g. c #AE9B83",
"h. c #B19D81",
"j. c #BF9988",
"k. c #BBA382",
"l. c #B9A485",
"z. c #BFA887",
"x. c #CA9582",
"c. c #C0A986",
"v. c #C5AD8C",
"b. c #C8B28E",
"n. c #CBB591",
"m. c #CDBB95",
"M. c #D3BC95",
"N. c #D3BD9B",
"B. c #DCBEA3",
"V. c #E0BDA0",
"C. c #D3C19B",
"Z. c #DAC49C",
"A. c #DFC89F",
"S. c #E9D98C",
"D. c #E1CA9F",
"F. c #DBC7A5",
"G. c #E3C5A3",
"H. c #E3CCA3",
"J. c #E7D1A6",
"K. c #E7D2A8",
"L. c #EBD4AB",
"P. c #EED9AE",
"I. c #E6C8B1",
"U. c #ECD5B2",
"Y. c #F2DDB2",
"T. c #FCDFBD",
"R. c #F4E1B5",
"E. c #F6E4B9",
"W. c #F9E5BA",
"Q. c #FAE9BD",
/* pixels */
"3.3.3.3.3.3.3.3.3.3.3.3.3.3.3.3.3.3.3.3.3.3.3.3.3.3.3.3.3.3.3.3.3.3.3.3.3.3.3.3.3.3.3.3.3.3.3.3.",
"3.3.3.3.3.3.3.3.3.3.3.3.3.3.3.3.3.3.3.3.3.3.3.3.3.3.3.3.3.3.3.3.3.3.3.3.3.3.3.3.3.3.3.3.3.3.3.3.",
"3.3.3.3.3.3.3.3.3.3.3.3.3.3.3.3.3.3.3.3.3.3.3.3.3.3.3.3.3.3.3.3.3.3.3.3.3.3.3.3.3.3.3.3.3.3.3.3.",
"3.3.3.3.3.3.3.3.3.3.3.3.3.3.3.3.3.3.3.3.3.3.3.3.3.3.3.3.3.3.3.3.3.3.3.3.3.3.3.3.3.3.3.3.3.3.3.3.",
"S.S.S.S.s.S.S.S.S.S.S.S.S.S.S.S.S.S.S.s.S.S.S.S.S.S.S.S.S.S.S.S.S.S.s.S.S.S.S.S.S.S.S.S.S.S.S.S.",
"S.S.S.S.s.S.S.S.S.S.S.S.S.S.S.S.S.S.S.s.S.S.S.S.S.S.S.S.S.S.S.S.S.S.s.S.S.S.S.S.S.S.S.S.S.S.S.S.",
"S.S.S.S.s.S.S.S.S.S.S.S.S.S.S.S.S.S.S.s.S.S.S.S.S.S.S.S.S.S.S.S.S.S.s.S.S.S.S.S.S.S.S.S.S.S.S.S.",
"S.S.S.S.s.S.S.S.S.S.S.S.S.S.S.S.S.S.S.s.S.S.S.S.S.S.S.S.S.S.S.S.S.S.s.S.S.S.S.S.S.S.S.S.S.S.S.S.",
"S.S.S.S.s.S.S.S.S.S.S.S.S.S.S.S.S.S.S.s.S.S.S.S.S.S.S.S.S.S.S.S.S.S.s.S.S.S.S.S.S.S.S.S.S.S.S.S.",
"S.S.S.S.s.S.S.S.S.S.S.S.S.S.S.S.S.S.S.s.S.S.S.S.S.S.S.S.S.S.S.S.S.S.s.S.S.S.S.S.S.S.S.S.S.S.S.S.",
"S.S.S.S.s.S.S.S.S.S.S.S.S.S.S.S.S.S.S.s.S.S.S.S.S.S.S.S.S.S.S.S.S.S.s.S.S.S.S.S.S.S.S.S.S.S.S.S.",
"S.S.S.S.s.S.S.S.S.S.S.S.S.S.S.S.S.S.S.s.S.S.S.S.S.S.S.S.S.S.S.S.S.S.s.S.S.S.S.S.S.S.S.S.S.S.S.S.",
"S.S.S.S.s.S.S.S.S.S.S.S.S.S.S.S.S.S.S.7.B M M y M M M y y r S.S.S.S.s.S.S.S.S.S.S.S.S.S.S.S.S.S.",
"S.S.S.S.s.S.S.S.S.S.S.S.S.S.S.x.d.d.f.} C C K ~ ( E ~ T Q H C b N w s j.S.S.S.S.S.S.S.S.S.S.S.S.",
"S.S.S.S.s.S.S.S.S.S.S.S.S.{ y M M M ` ( ~ ' ) +.:.( ~ ) T T ( X.U R V M r 9.S.S.S.S.S.S.S.S.S.S.",
"S.S.S.S.s.S.S.S.S.S.S.S.y M M ~ ~ ( ( T ( ) ( ( ~ =.:.+.~ ' ' ( +.Y Y Y U M e S.S.S.S.S.S.S.S.S.",
"S.S.S.S.s.S.S.S.S.S.V.y V Y @.<.;.] ~ ' ( ) ) ) ' ( O.*.%.) ~ ( ) +.T Y U U M w y.S.S.S.S.S.S.S.",
"S.S.S.S.s.S.S.S.S.y y ) ' ) ' ( ( ( E 1.2.o.) ( ^ / ( ) ^ >.) ) ~ ~ ] Y R Q R Y u S.S.S.S.S.S.S.",
"S.S.S.S.s.S.S.S.S.M m ) ' ' ( ) ) ~ ' ' [ :.*.o.) ) ' ) ~ &.&.( ( / ~ +.W R Y Y U r S.S.S.S.S.S.",
"S.S.S.S.s.S.S.B.i  ._ ! ! ^ ] ) ) ) ) ' ( ( ;.$.^ ' ' ) ( ( #.O.( ~ (  .) T Y T Y q I.S.S.S.S.S.",
"S.S.S.S.s.S.S.o ( ) ( X.' [ ,.,.=./ ) ) ) ) E ) %.%.' ~ ( G Y ( G G J Y  .U R Y Q M 3 S.S.S.S.S.",
"S.S.S.S.s.S.S.y X.X.) ] ) ~  .~ +.&.) ) ~ / ( E Q o.~ U I G G Q I G G A ) A G Q Q N 2 S.S.S.S.S.",
"S.S.S.S.s.S.y | ) X.' X.) ) ) ) ( $.>.$.] ! ' ( Q K J U U G I Y A I A A | G I U U N < S.S.S.S.S.",
"S.S.S.S.s.t Z $.' ] ) ) ( ( ~ /  .) ~ ) +.T J G G G I G I + n t * O = o = y A A Z - , S.S.S.S.S.",
"S.S.S.S.s.y G =.1.1.1.) ] ) ' ) ( ) ) ) o.) U U U C A N M q q < < < q < r < r M N q S.S.S.S.S.S.",
"S.S.S.S.s.y X.) ) ( ] >.<.;.( ' ( ( ( J G ) U U G S * q # $ 4.h.h.k.l.l.e.k $ , , . S.S.S.S.S.S.",
"S.S.S.S.s.y [ O.( ] ) ] ( ] +.:.%.U G U U ) G B w q 5.w.g.r.v.P.n.K.A.Z.K.v.e.g 4 S.S.S.S.S.S.S.",
"S.S.S.S.s.y Z ) ] ] ) ) ) ( ' o.-.J U U L ~ F ; < X h.N.K.D.Z.Y.K.Z.Z.E.K.v.9.d   S.S.S.S.S.S.S.",
"S.S.S.S.s.O B ..' ' ' ) ) ) ) / &.U U U G M q $ 6.4.M.H.Y.H.H.Z.J.W.E.W.P.n.j 7 S.S.S.S.S.S.S.S.",
"S.S.S.S.s.S.u y I J ) ) ) ) ) I ( T Q i % q 0.z.N.P.H.H.H.P.P.Q.E.P.Y.Z.Z.r.8 p.k.S.S.S.S.S.S.S.",
"S.S.S.S.s.S.S.: O > P G P U G I R R y w < u.v.H.E.W.K.H.W.W.J.L.J.E.W.N.k.x 8 0.k.k.S.S.S.S.S.S.",
"S.S.S.S.s.S.S.& 9 7 N I D U U G Y M q @ g.Z.R.R.P.K.H.P.W.Y.W.W.P.W.R.e.x p t.t.u.k.k.S.S.S.S.S.",
"S.S.S.S.s.S.S.S.7 v 5.U.q 2 3 < 1 r z.c.Y.P.L.P.P.Y.Q.Q.P.K.Y.F.Z.l x 8 q.q.u.u.k.k.S.S.S.S.S.S.",
"S.S.S.S.s.S.S.S.y.8 c K.T.H.T.G.v.v.H.Z.Y.Q.W.H.H.E.Y.L.H.n.v.F.j p 4 t.t.u.u.u.k.S.S.S.S.S.S.S.",
"S.S.S.S.s.S.S.u.u.t.p r.b.H.Y.K.L.Q.Q.W.Q.Q.W.H.Z.Z.L.H.e.c j z 5 0.0.t.u.u.a.k.S.S.S.S.S.S.S.S.",
"S.S.S.S.s.S.S.u.k.t.p.8 5 g l k.8.M.m.p.C.p.l.u.h d g p 4 q.0.0.t.i.u.k.t.S.S.S.S.S.S.S.S.S.S.S.",
"S.S.S.S.s.S.S.v.a.u.t.0.u.7 6 p a h a h f a d f 7 7 6 6 u.t.u.u.t.u.u.S.S.S.S.S.S.S.S.S.S.S.S.S.",
"S.S.S.S.s.S.S.S.S.u.k.u.k.u.t.8 8 7 0 0 8 6 7 7 u.p.u.t.u.a.a.k.S.S.s.S.S.S.S.S.S.S.S.S.S.S.S.S.",
"S.S.S.S.s.S.S.S.S.S.S.S.S.n.k.k.k.a.k.k.k.k.k.i.c.S.S.S.S.S.S.S.S.S.s.S.S.S.S.S.S.S.S.S.S.S.S.S.",
"S.S.S.S.s.S.S.S.S.S.S.S.S.S.S.S.S.S.S.s.S.S.S.S.S.S.S.S.S.S.S.S.S.S.s.S.S.S.S.S.S.S.S.S.S.S.S.S.",
"S.S.S.S.s.S.S.S.S.S.S.S.S.S.S.S.S.S.S.s.S.S.S.S.S.S.S.S.S.S.S.S.S.S.s.S.S.S.S.S.S.S.S.S.S.S.S.S.",
"S.S.S.S.s.S.S.S.S.S.S.S.S.S.S.S.S.S.S.s.S.S.S.S.S.S.S.S.S.S.S.S.S.S.s.S.S.S.S.S.S.S.S.S.S.S.S.S.",
"S.S.S.S.s.S.S.S.S.S.S.S.S.S.S.S.S.S.S.s.S.S.S.S.S.S.S.S.S.S.S.S.S.S.s.S.S.S.S.S.S.S.S.S.S.S.S.S.",
"S.S.S.S.s.S.S.S.S.S.S.S.S.S.S.S.S.S.S.s.S.S.S.S.S.S.S.S.S.S.S.S.S.S.s.S.S.S.S.S.S.S.S.S.S.S.S.S.",
"3.3.3.3.3.3.3.3.3.3.3.3.3.3.3.3.3.3.3.3.3.3.3.3.3.3.3.3.3.3.3.3.3.3.3.3.3.3.3.3.3.3.3.3.3.3.3.3.",
"3.3.3.3.3.3.3.3.3.3.3.3.3.3.3.3.3.3.3.3.3.3.3.3.3.3.3.3.3.3.3.3.3.3.3.3.3.3.3.3.3.3.3.3.3.3.3.3.",
"3.3.3.3.3.3.3.3.3.3.3.3.3.3.3.3.3.3.3.3.3.3.3.3.3.3.3.3.3.3.3.3.3.3.3.3.3.3.3.3.3.3.3.3.3.3.3.3.",
"3.3.3.3.3.3.3.3.3.3.3.3.3.3.3.3.3.3.3.3.3.3.3.3.3.3.3.3.3.3.3.3.3.3.3.3.3.3.3.3.3.3.3.3.3.3.3.3."
};
