/* XPM */
static char *result[] = {
/* columns rows colors chars-per-pixel */
"48 48 172 2 ",
"   c #331B0F",
".  c #3E1D0C",
"X  c #2F1C16",
"o  c #2F1E18",
"O  c #351D14",
"+  c #391E14",
"@  c #331F18",
"#  c #381E19",
"$  c #362017",
"%  c #3A2117",
"&  c #3C241A",
"*  c #411E0D",
"=  c #41200E",
"-  c #442211",
";  c #40271B",
":  c #42291C",
">  c #4D2B1B",
",  c #532B17",
"<  c #552D1A",
"1  c #582F1A",
"2  c #54311F",
"3  c #5A301B",
"4  c #60371F",
"5  c #6A371B",
"6  c #6D3A1D",
"7  c #733D1E",
"8  c #7A3F1C",
"9  c #553323",
"0  c #593626",
"q  c #5B3926",
"w  c #5C3B29",
"e  c #663B24",
"r  c #6B3D23",
"t  c #603E2A",
"y  c #783F22",
"u  c #7D431E",
"i  c #63402A",
"p  c #6A462E",
"a  c #754223",
"s  c #7C4323",
"d  c #774A2E",
"f  c #7D4A2C",
"g  c #6A4732",
"h  c #6D4A33",
"j  c #6F4E38",
"k  c #704E37",
"l  c #724D39",
"z  c #74503C",
"x  c #775442",
"c  c #765947",
"v  c #745848",
"b  c #814621",
"n  c #804A2B",
"m  c #845332",
"M  c #895533",
"N  c #8C5935",
"B  c #855C3A",
"V  c #895C3A",
"C  c #925B36",
"Z  c #925D3A",
"A  c #8C613F",
"S  c #95613E",
"D  c #8D6441",
"F  c #916542",
"G  c #956B45",
"H  c #9A6B45",
"J  c #966E4A",
"K  c #996E49",
"L  c #97714D",
"P  c #99714D",
"I  c #856652",
"U  c #876856",
"Y  c #8C6C56",
"T  c #8F6F5B",
"R  c #926D55",
"E  c #8E715B",
"W  c #9B7551",
"Q  c #9D7952",
"!  c #95745D",
"~  c #9D7B5D",
"^  c #A3724B",
"/  c #A87549",
"(  c #AC7A4E",
")  c #A27652",
"_  c #A77B51",
"`  c #AA7D53",
"'  c #B07F53",
"]  c #967761",
"[  c #977963",
"{  c #9B7C65",
"}  c #9A7C68",
"|  c #A5804F",
" . c #AD8357",
".. c #AD835B",
"X. c #B28356",
"o. c #B3855A",
"O. c #B28B5D",
"+. c #B88A5F",
"@. c #9F816A",
"#. c #AD8961",
"$. c #A2856A",
"%. c #AD8E69",
"&. c #B28761",
"*. c #B48C63",
"=. c #B98F68",
"-. c #B79267",
";. c #B89063",
":. c #B3956E",
">. c #BA956B",
",. c #BC996F",
"<. c #AD9474",
"1. c #B29472",
"2. c #B59877",
"3. c #BE9C75",
"4. c #B69B7B",
"5. c #BD9D7A",
"6. c #C69A67",
"7. c #C69D6D",
"8. c #CA9D6E",
"9. c #C29D72",
"0. c #CEA26E",
"q. c #CDA575",
"w. c #CFA876",
"e. c #C4A37B",
"r. c #CAA679",
"t. c #CCAA7D",
"y. c #D2A773",
"u. c #D8AA74",
"i. c #D4AB7C",
"p. c #DAAE7A",
"a. c #DCB27D",
"s. c #C4A983",
"d. c #CBAC84",
"f. c #C6AE8C",
"g. c #CBAF8A",
"h. c #D2AD82",
"j. c #C7B08E",
"k. c #CDB18B",
"l. c #D5B084",
"z. c #DCB582",
"x. c #DFB885",
"c. c #D1B28C",
"v. c #DFBD8B",
"b. c #CBB391",
"n. c #CDBC9E",
"m. c #D3B690",
"M. c #E2B984",
"N. c #E3BE8B",
"B. c #CFBEA1",
"V. c #D0BFA2",
"C. c #E4C28D",
"Z. c #E9C28E",
"A. c #E5C594",
"S. c #EAC693",
"D. c #E7C996",
"F. c #EAC995",
"G. c #E6C699",
"H. c #E9C799",
"J. c #E6C99C",
"K. c #E9CA9C",
"L. c #F0CB9E",
"P. c #CFC0A2",
"I. c #D1C0A3",
"U. c #E7CCA1",
"Y. c #EBCDA2",
"T. c #ECD1A5",
"R. c #E7D7B5",
"E. c #EBD9B7",
"W. c #EEDDBB",
"Q. c #F0DFBD",
"!. c #F0E0BE",
"~. c #F3E2C0",
/* pixels */
"W.W.~.W.W.W.W.W.W.W.W.W.W.W.W.W.W.!.W.W.W.E.W.E.E.W.W.W.W.W.W.W.W.W.W.W.!.W.!.W.W.W.W.W.W.E.!.!.",
"!.W.!.W.W.!.W.W.Q.W.W.W.W.W.W.W.W.!.W.W.W.W.W.W.W.W.!.W.W.!.W.!.W.W.W.E.W.W.W.W.W.!.W.W.W.W.W.W.",
"W.W.!.!.W.W.W.!.Q.W.W.Q.!.!.W.!.!.!.W.W.!.W.W.W.W.!.W.!.W.!.E.!.W.!.W.W.!.W.!.!.W.W.W.W.W.W.W.W.",
"!.!.W.Q.W.!.!.W.W.W.W.W.!.!.W.W.!.W.W.!.!.W.!.!.W.W.!.W.W.W.!.W.W.!.E.E.W.W.W.!.W.W.W.W.W.W.W.W.",
"W.W.W.!.W.!.W.W.Q.Q.W.Q.!.Q.W.Q.W.W.!.W.W.!.!.!.!.!.!.!.W.W.W.E.W.W.W.W.W.W.W.W.!.!.W.W.!.W.!.W.",
"!.W.E.W.W.W.!.W.Q.!.W.W.Q.W.W.W.W.W.W.W.E.W.E.W.E.!.E.!.E.!.R.!.W.W.W.W.W.E.W.W.W.W.E.W.W.W.W.W.",
"W.W.W.!.!.W.R.P.n.n.n.I.n.n.n.n.B.P.B.B.P.B.B.n.n.n.P.P.P.P.P.P.n.I.n.n.I.n.B.n.B.R.W.W.W.!.W.W.",
"W.W.W.!.W.W.P.o O +       + O O % O + + + % O O . + O %     + +   % %   % % % O o n.W.W.W.!.W.!.",
"W.W.W.W.!.W.P.& a a u s 7 u a s s s s y s a y s a u u a s s s a a y u u a 7 6 a & B.!.W.W.Q.W.!.",
"W.W.!.W.!.W.B.& 6 o & $ & & & % & $ & & & # & @ X $ % & & $ & # % @ @ % & & $ 5 & P.!.!.W.Q.W.Q.",
"W.W.W.W.W.W.P.: b % 3 > > 9 > > > 2 > > > > < + O < 2 > > > > > > > > > > 1 $ s : P.W.W.W.W.Q.W.",
"W.W.W.W.W.W.B.& u % A O.| O.O.*.v W O.O.-. .V +   B _ O...O.Q c O.O.O.O...B $ u : P.W.W.W.W.W.W.",
"W.W.W.W.!.W.B.: u % ^ 8.w.i.y.h.U -.q.p.l.0.^ * . ^ 6.l.i.0.-.E i.w.i.i.w.^ & b & P.W.Q.W.W.W.W.",
"W.W.!.W.W.W.B.: u % ` K.Y.K.K.Y.} j.K.H.T.J.-.= = *.D.T.F.F.d.{ K.H.Y.J.J.&.& u & I.Q.Q.Q.W.W.W.",
"W.W.W.W.!.!.P.: b ;  .Y.Y.K.H.K.} k.Y.Y.T.C.*.* * o.A.U.K.Y.k.{ J.K.K.Y.Y...% b ; V.W.Q.W.W.E.W.",
"W.W.W.W.W.W.B.& u % 4 2 w w w t w q w w w w r * . r 9 w w w q 0 0 w 0 q w e % u ; n.Q.W.W.W.W.W.",
"W.W.W.W.!.W.B.; s & G -.,.5.,.,.c #.s.9.5.;.S = * H >.e.3.e...I 3.3.,.-.=.F % u ; V.W.Q.W.W.E.W.",
"!.!.W.!.!.!.n.; b & ` J.U.H.U.U.@.d.Y.Y.T.J.+.= = X.H.T.K.T.r.} D.Y.H.K.Y.' % 8 ; V.W.W.W.Q.Q.W.",
"W.W.W.!.!.W.V.: b % ( Z.D.Y.T.H.[ r.U.H.Y.K.+.= = +.Z.T.T.T.m.{ K.T.Y.H.S.o.% s & B.W.Q.E.Q.W.Q.",
"E.E.E.W.!.W.B.: b % A 1.2.4.4.4.I ~ 4.1.4.%.H * = H 1.2.:.2.$.I 4.2.1.<.:.G & u : V.W.Q.E.W.Q.Q.",
"W.E.E.W.W.Q.n.; b + r w q w w w 0 9 0 w 0 2 r * = r 2 0 q w 9 9 t w w 2 0 r % u ; B.W.W.E.E.W.W.",
"W.W.W.W.W.Q.n.; b + ( z.N.N.N.x.! r.N.C.C.a.' - - ( a.N.M.A.7.~ N.z.A.v.M.( ; u & B.Q.Q.E.Q.W.Q.",
"W.W.W.W.W.Q.B.; s &  .Y.Y.G.U.J.{ l.T.T.T.S.*.= = X.U.T.K.T.r.{ J.Y.J.T.Y.*.& b ; V.W.W.Q.E.Q.Q.",
"W.W.W.W.W.W.n.% u & ' N.G.K.U.Y.{ d.Y.J.T.T.*.= = X.A.T.K.T.d.{ D.Y.J.A.C.` & b ; n.W.W.Q.Q.Q.Q.",
"W.W.Q.!.W.!.n.; b % ) d.s.b.j.f.T <.g.j.b.b.... = ^ e.b.g.m.4.Y f.k.g.e.e.P & b ; n.Q.Q.W.W.W.W.",
"W.!.W.!.!.W.n.; b % m J W W W J x D L P W L V - * N K W P P B l J W W W K V & u ; n.W.W.W.W.!.!.",
"W.W.W.Q.!.W.n.: b ; ` H.U.A.G.Y.} g.J.D.U.J.o.- * X.H.K.S.K.s.{ N.J.J.N.N...& u + V.W.Q.W.W.W.W.",
"!.W.Q.W.Q.!.P.; b %  .K.Y.J.J.J.[ r.T.Y.Y.J.-.. * X.C.Y.H.Y.t.} Y.J.D.A.A...& s ; V.W.!.!.W.W.W.",
"W.!.W.W.W.W.n.; s % ' C.A.J.J.D.[ r.K.K.T.Z.*.= .  .C.U.K.J.d.@.K.T.A.D.J. .& u ; I.Q.W.W.W.W.W.",
"W.W.!.W.W.!.P.; b ; r h g k h p w i p p h h d - = a p j h h i 9 p h h h g d & u ; V.Q.E.W.W.W.!.",
"!.!.W.W.W.W.n.; b % ^ u.p.z.a.i.R >.z.a.a.y./ = . ( a.A.x.x.7.~ x.x.z.z.p.( & b ; B.W.W.W.W.Q.Q.",
"W.W.W.W.!.Q.n.; b % _ K.U.K.T.Y.{ t.K.D.Y.J.*.= . o.Y.Y.K.Y.k.@.K.K.H.Y.H.` % u & B.W.W.W.W.W.W.",
"W.W.W.W.Q.W.n.: b : ` Y.Y.Y.T.G.] r.U.D.U.A.*.= . X.G.U.D.Y.k.$.T.J.H.U.L.o.& s : I.Q.W.E.Q.W.W.",
"W.W.W.W.E.W.P.: b ; H 9.h.c.m.m.T 5.k.c.c.t._ - * ^ w.c.h.d.:.E t.m.g.r.9.^ % u ; B.W.W.Q.W.W.W.",
"W.W.W.W.W.W.n.: b ; m G J J H P z F K K K F M * = N F L J G A l K H K G G m % u & n.W.W.Q.W.W.W.",
"W.W.W.W.!.!.n.; 8 % ( N.H.H.S.L.} l.S.S.H.C.+.* = X.S.F.N.S.i.{ L.S.K.L.S._ ; u & n.Q.W.Q.Q.Q.Q.",
"E.W.!.W.W.W.n.; y # _ H.Y.Y.K.L.} d.K.F.Y.S.&.= = X.D.Y.H.K.t.} H.S.J.K.H.` % u ; n.E.Q.W.W.W.Q.",
"W.W.W.W.!.E.n.: s ; ` U.L.K.Y.Y.[ r.U.K.Y.G.*.= * X.N.Y.K.Y.r.[ J.Y.D.K.U.` % 8 ; n.Q.E.W.W.W.Q.",
"W.E.W.W.W.W.n.; b # a Z S S Z N f m Z C Z C n + . n C Z C C C f M N Z N Z f & 7 ; n.E.Q.Q.Q.Q.Q.",
"E.W.W.W.W.W.n.; s # X O O   # # O     O @ @ @ o $ @ @ % # # O O O O # # # O X y % n.Q.W.W.W.Q.E.",
"W.W.W.W.W.W.P.& r < 3 1 < < 1 1 3 3 3 3 3 3 < , < 1 1 1 3 3 < 3 3 3 < 1 3 1 , r + n.Q.W.W.Q.W.Q.",
"W.W.Q.!.W.W.P.o # & & % & & & & & & & & & % & & % % & & & & % % & & & % & % # # @ V.E.W.W.W.E.W.",
"W.W.W.W.W.E.W.W.Q.E.W.E.E.W.W.W.W.Q.W.W.W.W.!.!.W.W.W.W.W.W.W.W.W.W.W.W.W.W.W.W.W.W.Q.Q.W.Q.Q.W.",
"!.W.W.W.!.W.W.W.W.W.Q.Q.Q.W.W.W.W.W.W.!.W.W.!.!.W.W.W.W.W.W.W.W.W.W.W.Q.W.W.W.!.Q.W.W.W.Q.Q.Q.W.",
"W.W.!.W.W.W.W.!.W.W.W.W.!.Q.E.Q.W.!.W.W.Q.E.!.E.W.Q.E.W.W.E.W.W.Q.Q.W.Q.Q.W.W.W.!.Q.Q.W.W.W.E.Q.",
"W.W.W.W.W.W.W.E.W.!.E.W.Q.W.W.Q.W.W.!.!.W.Q.W.W.W.W.W.W.!.W.W.E.W.Q.W.W.W.!.W.W.W.W.Q.W.Q.Q.Q.Q.",
"W.W.!.W.W.W.W.W.W.W.W.W.W.W.W.Q.W.!.W.W.Q.W.Q.W.Q.W.!.W.W.W.W.E.W.Q.W.W.W.W.W.!.W.!.W.W.W.Q.W.W.",
"W.W.W.W.W.W.W.W.W.E.W.W.Q.W.W.Q.!.!.W.W.W.W.W.W.W.Q.W.W.!.W.E.W.W.W.E.W.W.W.W.W.W.W.W.W.Q.W.E.E."
};
